<mxfile host="app.diagrams.net" modified="2022-06-28T10:28:33.466Z" agent="5.0 (Macintosh)" etag="jGBvyBzu38xwXrYcLWgS" version="20.0.3" type="github">
  <diagram id="RL7a-Omk1F3GUec7kyLD" name="Page-1">
    <mxGraphModel dx="1226" dy="1023" grid="1" gridSize="10" guides="1" tooltips="1" connect="1" arrows="1" fold="1" page="1" pageScale="1" pageWidth="850" pageHeight="1100" math="0" shadow="0">
      <root>
        <mxCell id="0" />
        <mxCell id="1" parent="0" />
        <mxCell id="HVVMLvjsxQdkjvLkzc8h-5" value="Head Node" style="rounded=1;whiteSpace=wrap;html=1;labelPosition=center;verticalLabelPosition=bottom;align=center;verticalAlign=top;fillColor=#dae8fc;strokeColor=#6c8ebf;" vertex="1" parent="1">
          <mxGeometry x="520" y="530" width="250" height="150" as="geometry" />
        </mxCell>
        <mxCell id="HVVMLvjsxQdkjvLkzc8h-6" value="" style="shape=cylinder3;whiteSpace=wrap;html=1;boundedLbl=1;backgroundOutline=1;size=15;fillColor=#60a917;fontColor=#ffffff;strokeColor=#2D7600;" vertex="1" parent="1">
          <mxGeometry x="480" y="830" width="50" height="60" as="geometry" />
        </mxCell>
        <mxCell id="HVVMLvjsxQdkjvLkzc8h-7" value="&lt;b&gt;PBS Pro Server&lt;br&gt;&lt;/b&gt;&lt;div&gt;Altair LMX License Server&lt;br&gt;&lt;/div&gt;&lt;div&gt;RHEL 8.5&lt;/div&gt;&lt;div&gt;&lt;br&gt;&lt;/div&gt;&lt;div&gt;Open Stack Server&lt;/div&gt;" style="rounded=0;whiteSpace=wrap;html=1;" vertex="1" parent="1">
          <mxGeometry x="560" y="565" width="170" height="80" as="geometry" />
        </mxCell>
        <mxCell id="HVVMLvjsxQdkjvLkzc8h-10" value="Visualization Node" style="rounded=1;whiteSpace=wrap;html=1;labelPosition=center;verticalLabelPosition=bottom;align=center;verticalAlign=top;fillColor=#dae8fc;strokeColor=#6c8ebf;" vertex="1" parent="1">
          <mxGeometry x="80" y="530" width="290" height="140" as="geometry" />
        </mxCell>
        <mxCell id="HVVMLvjsxQdkjvLkzc8h-11" value="&lt;div&gt;&lt;b&gt;Altair Access Web&lt;/b&gt;&lt;br&gt;&lt;/div&gt;&lt;div&gt;Altair Access Visualization Client&lt;/div&gt;&lt;div&gt;RHEL 8.5&lt;/div&gt;&lt;div align=&quot;left&quot;&gt;/home&lt;/div&gt;&lt;div align=&quot;left&quot;&gt;/apps&lt;/div&gt;&lt;div align=&quot;left&quot;&gt;/scratch&lt;br&gt;&lt;/div&gt;" style="rounded=0;whiteSpace=wrap;html=1;" vertex="1" parent="1">
          <mxGeometry x="122.5" y="548.5" width="205" height="103" as="geometry" />
        </mxCell>
        <mxCell id="HVVMLvjsxQdkjvLkzc8h-15" value="" style="group;strokeColor=none;fillColor=#fff2cc;gradientColor=#ffd966;" vertex="1" connectable="0" parent="1">
          <mxGeometry x="510" y="160" width="170" height="145.4" as="geometry" />
        </mxCell>
        <mxCell id="HVVMLvjsxQdkjvLkzc8h-16" value="&lt;b&gt;Compute Nodes&lt;/b&gt;&lt;br&gt;&lt;div&gt;PBS Pro Execution&lt;/div&gt;&lt;div&gt;Rocky Linux 8.5&lt;/div&gt;&lt;div&gt;NTP Client, LDAP client&lt;br&gt;&lt;/div&gt;&lt;div&gt;&lt;div align=&quot;left&quot;&gt;/home&lt;/div&gt;&lt;div align=&quot;left&quot;&gt;/apps&lt;br&gt;&lt;/div&gt;&lt;div align=&quot;left&quot;&gt;/scratch&lt;/div&gt;&lt;/div&gt;" style="rounded=0;whiteSpace=wrap;html=1;fillColor=none;dashed=1;labelPosition=center;verticalLabelPosition=bottom;align=center;verticalAlign=top;" vertex="1" parent="HVVMLvjsxQdkjvLkzc8h-15">
          <mxGeometry width="170" height="145.4" as="geometry" />
        </mxCell>
        <mxCell id="HVVMLvjsxQdkjvLkzc8h-17" value="" style="pointerEvents=1;shadow=0;dashed=0;html=1;strokeColor=none;fillColor=#4495D1;labelPosition=center;verticalLabelPosition=bottom;verticalAlign=top;align=center;outlineConnect=0;shape=mxgraph.veeam.server_stack;" vertex="1" parent="HVVMLvjsxQdkjvLkzc8h-15">
          <mxGeometry x="20" y="72.7" width="57.2" height="51.51314285714287" as="geometry" />
        </mxCell>
        <mxCell id="HVVMLvjsxQdkjvLkzc8h-18" value="" style="pointerEvents=1;shadow=0;dashed=0;html=1;strokeColor=none;fillColor=#4495D1;labelPosition=center;verticalLabelPosition=bottom;verticalAlign=top;align=center;outlineConnect=0;shape=mxgraph.veeam.server_stack;" vertex="1" parent="HVVMLvjsxQdkjvLkzc8h-15">
          <mxGeometry x="89.79999999999995" y="72.7" width="57.2" height="51.51314285714287" as="geometry" />
        </mxCell>
        <mxCell id="HVVMLvjsxQdkjvLkzc8h-19" value="" style="pointerEvents=1;shadow=0;dashed=0;html=1;strokeColor=none;fillColor=#4495D1;labelPosition=center;verticalLabelPosition=bottom;verticalAlign=top;align=center;outlineConnect=0;shape=mxgraph.veeam.server_stack;" vertex="1" parent="HVVMLvjsxQdkjvLkzc8h-15">
          <mxGeometry x="89.79999999999995" y="21.18685714285715" width="57.2" height="51.51314285714287" as="geometry" />
        </mxCell>
        <mxCell id="HVVMLvjsxQdkjvLkzc8h-20" value="" style="pointerEvents=1;shadow=0;dashed=0;html=1;strokeColor=none;fillColor=#4495D1;labelPosition=center;verticalLabelPosition=bottom;verticalAlign=top;align=center;outlineConnect=0;shape=mxgraph.veeam.server_stack;" vertex="1" parent="HVVMLvjsxQdkjvLkzc8h-15">
          <mxGeometry x="20" y="21.18685714285715" width="57.2" height="51.51314285714287" as="geometry" />
        </mxCell>
        <mxCell id="HVVMLvjsxQdkjvLkzc8h-25" value="" style="shape=image;verticalLabelPosition=bottom;labelBackgroundColor=default;verticalAlign=top;aspect=fixed;imageAspect=0;image=data:image/png,iVBORw0KGgoAAAANSUhEUgAAAggAAAH+CAYAAAD53/b6AAAgAElEQVR4XuydB3xcxbn255wtKu69SHKVGwaMGx3iQHoPCSG93VzuTQCbhJKENN+EBFzA2KaFNFK/XAghNySQmOYCGGPJFYNtZDBggw027pas3T3zvbPSipW00p45Zc6cs8/en66CNTPvO/939sxzphoMHxAAARAAAccEVp867ow0Yx9mjM+iQmL5BcU4/02KNz70jmdfe9WxAWQEgYAIGAHZhVkQAAEQ0I7AU5Mn98/Ejo1jVnw8M/l55OA7GDPGe+GoYbA/nrux4fNelIUyQEAFAQgEFZRhAwRAIFACT506/kLGMv+RYcZnAnVEGOds73mbG4YG7gccAIEiBCAQ0ERAAARCReBfk6v7VxrJs0zDOIMzdgo3jCn0IBsdqkqQs7EegyrPXr26MWx+w9/SIQCBUDqxRk1BQDsCcxkzL5haOyCTTg9I8NgUbrJPUYf/UYO3n8vXznGPHOIxNvj89Q1velQcigEBTwlAIHiKE4WBAAgIAk+eOnYwZ8aH6Q3/YzSkfhI3eH+DGX1BpzOBJEuNOWPTyy+BDQjoRgACQbeIwB8Q0JDA46eMmmjSG36MmdO5yc8mF8+gn7iGrobSpRhns87e3LAilM7D6cgSgECIbGhRMRDonsAT5wzsxQ/1uZQZxteYwSaCV7AETMYuPmdTw1+C9QLWQeBtAhAIaA0gEAECc8Vc/uSxZzHTPMcw+Ezq8GmrHptEv5MRqF7JVIFz89LzN2//RclUGBXVmgAEgtbhgXOlSqBu+pg+TSk+lHFjrGWa76dFe+8lFuNKlUcp1TvDja/O2vzCb0qpzqirngQgEPSMC7yKKIHlk8e+Mxbnn6COfxbnbAAt3OuPt/yIBttNtQx21XkbG252UwTygoBbAhAIbgkif8kSECv1aZ3eyRmemcIMfjp19mLhXuj245dsAHWvOGeX04FKt+nuJvyLLgEIhOjGFjWTIEDb8Yzlo0aVNcYPJ3v27HeBYRmXUvb3SxSBpCDgOQGDmz8+d/P2H3leMAoEARsEIBBsQEKS8BJYcfLYGhrSP59njHe0rtSnc/WNIeGtETwvNQImZ/PO2dzwnVKrN+obPAEIhOBjAA9sEvj5dJaYeGLsUINbw4yYcRYzzA/SITzvouxoxzYZIllICRj8+vM27vhBSL2H2yElgAdrSAMXJbdXnzZxVIplLjYt9lnO+HC6zaYn9fmVUaoj6gICbgnQNNh9529q+KTbcpAfBOwSgECwSwrpbBG452IWG7K99lQzw042YmwqdfinGxY7i87Xp3Ng8AEBEHBFgLNf08LF/3BVBjKDgE0CEAg2QZVqsjrGEvtPHZLske41yorzL9F86Beps8ccfqk2CNQ7cAKktP9CJy5eHLgjcCDyBCAQIh/izhWsmz490Zw+dEGG8QvoAJ4ZdKnOKGoIo2gIE2/5JdgeUOVQEnj6vE0NZ4XSczgdGgIQCKEJVdeOPnLy6CFxboyImbGTaT/+OynlhfRDc/n4gAAIRJUAPbxXnrup4R1RrR/qFTwBCITgY2Dbg1Wn1P4vJX4/rdnvZTsTEoIACESXAGfP0ZqEydGtIGoWJAEIhCDp27C94tTaP9K4/2dtJEUSEACBkiRgbDtv0wu4jbMkY+9vpSEQ/OXruPRHTh5r0UgBbQSghQGG0f3iAE6n+huUCB8QAIGSJEC7hXaev2kHjvkuyej7V2l0Kv6xdVTy3LlzzdP/8ruMWC1okkIwKUK2RIIja8gEAiAQGQKcv37e5h1YexSZgAZfEQiE4GPQ5sH9k0Z9zDCN+2NCGGRHDlpEQiz7+23BgKBpFDS4AgIaEaCxxP3nb24YqJFLcCXEBNDXaBK8/51U87GYEb8/JwyESBDBaREHb48ktPxby9/wAQEQAIGOBOjZcIh2N/QFGRBwSwD9jFuCHuT//YRR74uZ7KH8qYSW0QMxvdAiDjDl4AFoFAECJULAYPz4uZt29CiR6qKaPhGAQPAJrN1ifz5p5LAKzl7LjQwUH0GwPeVA5x5hoMFuHJAOBCJI4AQdplQewXqhSooIQCAoAt2VmV9NGMnfHiFo2bHQMpLQOrUgRhHyphlyIwlYlxBw4GAeBMJBoJlEQlk4XIWXuhGAQAgwIneOH3GYhECv/OmD7LRC67bGltGEzoKhZWdD/tSDja2QAdYTpkEABAIlkCGREA/UAxgPJQEIhADDdtv4Gl5ol0IhkdDyb2+PKrStUeggJnCZQoABhWkQ0JdAikRCUl/34JmOBCAQAorKknE13yfTP2kbDcifVsidfZA/SpAbNSiarmXEAR8QAAEQyCdAjxBOuxvwDoFmYZsABIJtVN4mvKm2mtYetJx30HE9QafdC7l0WXHQ4YyEDoIhPy+C623MUBoIRIEAjSTg0RCFQCqoAxqKAsiFTCwggdBu50JeR99RMLTb/tgqEjouZMS6hIACCbMgEDICtL0pff6mhkTI3Ia7ARCAQAgAujApBIL4LQKQv2Ohc0ffeVtj5zUKhU9cxBHNAQUXZkEgBAQwkhCCIAXsIgRCAAG4+GIWO319dTpnOisSWkcG8s9ByD9uue1OBqxLCCBiMAkC0SQAkRDNuHpVKwgEr0hKlHPz2OrLMwZb2jFLvkiwu2Oh8+mLHbZFdjiREQGXCBSSgkAICPQq63kgaZb1SMTirCJRmaIt0JU0PNnlVz1tpZveOPrG/sZMU5WoHkRCCIIckIvoLwIA35VAyJ9y6HhhU8ERhPyLnPK2O7ado5B3RHPbuoZiV0cHwAMmQQAEWgjQ1zMTNxIWLUaOD6gcsKciVtGHvuaVfvGhR8TxHQd2HKFjmYf6ZQPlhpcABEIAsVtQW3UlPQoWdWW647oEOycp2l2XkJ8ugKrDJAiUJIHyRNnRfuX9GuMsNjAeSzSbhikOLtJmR7LF0zurVz42uiSDg0p3SQACIYDGMW9s1VX0hrCwmGnZkxSz0w3ip932SVwdXYwz/g4CsgTKYuWNyVg8HjcTRp+yXodjZryfGACQLUe39MNXLAt9HXRjGmZ/0BgCiN7CccOv5dycZ8c01iXYoYQ0IOANgQEVA17tk+zdxzCN3t6UGL5SIBLCFzO/PIZA8ItsN+XSFMN36WXjZ3ZN56YcbK1LyN3dkDeS0G76AesS7GJHupATiBvxdG96u0+Y8b5l8fJGettP0NcDxw3biCtEgg1IJZAEAiGAIM8fW/N9w+A/kTUtu2Mhf5tku4OVOuxsyB+lQIOQjQrSqyIQM+InErGYWWYmWb+KfodpMV8/btB1Jvj4QgAiwResoSoU/UEA4bqpdsSPLGbNdWK682hA/nHN7W94bL+boUO67AhD4QOW0CicRAZ5nBLoU9Znb8+yyvIYi/eiufw0tUs65Y/e9fEJlIDJ2V1DVy77r0CdgPFACeBLGAD+BeNqfsw4/4FT0+0OVWrt6Ntf/9wiFHBEs1PCyOeUQMw0M5WxikbTjPfokexxqCJeJjr7Hk7LQ75gCWAUIVj+QVuHQAggAgtra37KGb/OjemOpy92PljJ+RHN2ArpJjLRykvtzBJXkidiZZlBPQfsLYuVDeWciS16+JQAAXrJWDRkxbJvlUBVUcUCBCAQAmgWdJPjjRZj3/bCNNYleEGx9Mrokah8qyJRkaSFfBUVifJG04iJw3gwn196TaFojTGKUBRRZBNAIAQQWlqkuJAWKV7llemOUw52TlKUXcuAhuJVtLwvh97wrYSZSJmmmexd1vvNymRlmcnMPt5bQomlSAACoRSj3lJnPPcDiD1tc6RTFA06TdG7D9YleMdSl5KS1OkPrBywLxlLDjYMk9Ppe+L7qs3pe7pwgh9+E+BLhq94eI7fVlC+fgQgEAKIycJx1UtoHvcKr013eUSzGDvuYscCjmj2Ogpdl1cWTx5JxsriNKyf6F3W8wjty+9FqTGfry4EsOSIAH+ZBMIoR1mRKdQEIBACCB+NINxGIwjf8Mu0oyOaWwWE3eum0XAYNwzDMphh9invu6tvea9Kk8UG+BVTlAsCgRGgFdXDVy7D+pTAAhCcYTznA2C/YGzVnbTN29f9xX6tSxDj29lxbtqmHsXGQ7VK9avo+1bCTPYviyVT8VicNogYZQE0E5gEAW0IYB2CNqFQ6kgUn/FKAToxNr+2+hcE/mtO8srkyZ9ysHuSYuddEWLSO/8Aps5nLMj4pDptzIg1iU4+RrUYWNl/XyKWHEg+0N58fEAABOwSgECwSypa6SAQAognnYPwaxq1+4oK01Fdl0Cr9Xf3KetZQcP6/eJ0+h6xjNOoDNqzikYFGyVHAAKh5EKerTAeqAHEfcHYmt8yg39RpWnN1yVkeiZ6HUzE4n0qExVHaTEfLdwze6JxqmwhsAUCXROAQCjN1oFncABxXzCu+o+Ms8+qNp1bO5AVC+LH9s6Gru5xaFmLkCsvty6BtuTRefr0/5lpDakcsrsskRxG5jCPrzrgsAcCHhGAQPAIZMiKgUAIIGALa6v+zJlxSQCm2xYYeiESBpf3YUMr+7O4ia35QcQSNkFAFQEIBFWk9bIDgRBAPEgg3EMC4eIATLfNK7Xb5ZC92Kl1JCC33TH7by23PbaMNLSMOFSYCTZ9wOigXIddEACBAAhAIAQAXQOTEAgBBIG2Od5HC+ouCsB0O5Oy6xJmDRqHdYBBBw32QSAAAhAIAUDXwCQEQgBBWFBb/Tcy+9EATHcyaWddwpQ+Q9mwChztr0O84AMIqCZAzwg+bAUOSlLNXQd7EAgBRIGOWv4HHbX8wQBMFzTZcSukmErInX3woaETsdVFl0DBDxAIggBOUgyCuhY2IRACCAONIDxEZt8XgOkuTWZFgvjJ7Uqgf7ho2CSdXIQvIAACwRDgNMWAo5aDYR+oVQiEAPAvHFezjHP+7gBMFzWZEwmXDIc4KAoLCUCgFAhwZtFdDNiqVAqx7lBHCIQAgk4jCI+S2QsCMG3L5KeGTWAJbF20xQqJQKAECGRoBAG3jpZAoDtWEQIhgKCTQHiczM4KwHRRkyPLe7NzB1QXTYcEIAACpUGAOok0LVLE/SWlEe52tYRACCDoJBCWk9l3BGC6qMnPVZ1UNA0SgAAIlA4Bg7PUsJXLkqVTY9Q0RwACIYC2QAJhBZk9PwDT3Zr88JCxrHccJyLrFhf4AwJBEqAdV81VK5fhwRBkEAKyDYEQAPgFY6tX0t7B8wIw3a1JjB7oFhH4AwJaEGiiNQgVWngCJ5QSgEBQirvF2MJxVas4N84NwHSXJj84eCzrm8BLgk4xgS8goAUBzo7TLoYeWvgCJ5QSgEBQirvFGB21/ASdWXxOAKa7NInRA52iAV9AQCsCx2gEoadWHsEZJQQgEJRgbm9kQW3Vk4wZZwdgGgJBJ+jwBQTCQeAICYTe4XAVXnpJAALBS5o2yyKB8BQJhLNsJvc9WW1lX3ZGv+G+24EBEACBMBLgh4aveLhvGD2Hz+4IQCC44+co98La6tWcsTMdZfYh00eHjGM949jm7ANaFAkCUSDwFo0gDIhCRVAHOQIQCHK8PEk9v7Z6DYE/3ZPCPCgE6w88gIgiQCCiBOiupn1VKx4eFNHqoVrdEIBACKB50AjCGhpBgEAIgD1MggAISBPYSyMIQ6VzIUPoCUAgBBDC+WOr19KliTMCMF3QJEYQdIkE/AAB/QhQJ/EaHbVcpZ9n8MhvAhAIfhMuUD4dlFRHByVND8A0BIIu0OEHCISFAGev0jkII8LiLvz0jgAEgncsbZc0v7aq3mDGNNsZfE6IEQSfAaN4EAgxAeokdtIIwugQVwGuOyQAgeAQnJtsdBfDOso/1U0ZXuaFQPCSJsoCgcgR2EFrEGojVytUqCgBCISiiLxPQOcgrKdzEE7zvmRnJUIgOOOGXCBQIgS2kUCYWCJ1RTXzCEAgBNAcSCBsIIEwJQDTBU1CIOgSCfgBAjoS4M/RQUmTdfQMPvlLAALBX74FS6dFihtpkeKpAZiGQNAFOvwAgZAQoOueN9F1z9q80IQEWyTchEAIIIy0zXETbXM8JQDTEAi6QIcfIBAWApyto10M2uy6Cgu2KPgJgRBAFGkEYTONIJwcgGkIBF2gww8QCAkBg7M1w1Yu0+Zo+JBgi4SbEAgBhJGOWn6WwGszp4c1CAE0ApgEgbAQ4OxJGkE4Nyzuwk/vCEAgeMfSdkm0zXELJT7JdgafE0Ig+AwYxYNAmAlwvmL4yodnhbkK8N0ZAQgEZ9xc5aJdDM/RLoZJrgrxMDMEgocwURQIRI/AI7TN8d3RqxZqVIwABEIxQj78nUYQnqditdlXDIHgQ5BRJAhEhAB1Eg/RSYofiEh1UA0JAhAIErC8SrpgbNVWZhgTvCrPbTkQCG4JIj8IRJcAHQv/92Er/v3R6NYQNeuKAARCAG2DdjFso10M4wMwXdAkBIIukYAfIKAfAbqa/m9VK5Z9XD/P4JHfBCAQ/CZcoHwSCNtJIIwLwDQEgi7Q4QcIhISAydj9Q1csuygk7sJNDwlAIHgI025RC2urXyBVrs3lJxhBsBs5pAOB0iNAUwx/pSmGT5RezVFjCIQA2gAtUmwgs2MDMI0RBF2gww8QCAkBOvX1vmHLl30yJO7CTQ8JQCB4CNNuUTSCsINGEMbYTe93Oowg+E0Y5YNAmAmYfxm+4l8Xh7kG8N0ZAQgEZ9xc5aIRhBepgNGuCvEwMwSChzBRFAhEjIDB+T3DVj58ScSqherYIACBYAOS10lokeKjtEjxAq/LdVoeBIJTcsgXZgIWXVN4LJNiB1NN7Cj9frnxMNvX3FiwSs0Zi1mtf3nfoJGsuqJXmKsu5TtNMfyZphg+I5UJiSNBAAIhoDDSaYrL6TTFdwRkvp1ZCAQdogAfvCLQnMlkO/v1h/dmO/UMtxhN6bn+nCCRkF/O10Zoc9+a67p1VwDV+U+0zfFzvhpB4VoSgEAIMCy0FuEB+vJ9KEAXsqYhEIKOAOx3RYAeUJze9F+l3w8ahrE5w9nW6pXLHqMLz7zo86XB548kiMz/QSIh6g9R2sXwO9rF8CVpWMgQegJRb9vaB4gedA9REN4XpKMQCEHSLzHbPPtSf4x61f0Gs7Yyk9067PFH/ilLISiBIPxstmi6IU+eRH0kwWD8N8NWPPxV2RghffgJQCBoEMMFY6p/Tw/KzwflCgRCUOQjZJezRpqrfoTe8G8xTX7YyDS9PGzVqjf9qmGQAqGjSDil10B2Rr+hflU1+HIt9ovhq5ZdGrwj8EA1AQgE1cS7sEfTDb+jl5IvBOEOBEIQ1LW3eYAZfBPnxhbD4quHrXr4j2K4XxevgxYIgkOKRhJIEGU/UR5FoLjfQZc1fUOX2MMPdQQgENSxLmppfu2IX9Cw69eKJvQ4AQSCx0A1Lo6Gi5+3DOOm8sbYvcfNg6ma1asLL9vXuA7CNR0EQnYkoXV3Q5QFAh21vISOWp6jeZOAez4QgEDwAaqbIheOq76Fdl8p/TJCILiJWKB5T9AXeB1n/C80p/8GN9Jrqx5/fFugHikyrotAyI0kfLlmMoUgmo9Tw+A3DVv+8NWKQgszGhGIZovWCLATV+ichMX0rJntJK+TPBAITqj5kYc3Ual7TWbu5txatdVMff+dy5en/bAU9jJ1EgiC5WeGT2Qxg961o/jh5o3DV/7ru1GsGurUPQEIBE1byMLamuvozfCnKtyDQPCXMn3JdnCT/9rM8AestHV4+FOPveyvxeiXDoGgLsY0MvIT2ub4Q3UWYUkXAhAIukSigB8kEn5KIuE6v12EQLBPmL4wKVqXtot+r6JV+6+mY5l/Vj/66Gr7JSClFwQgELygaK8M02A/GLp82fX2UiNVlAhAIGgeTTpx8Uo6cXGRn25CIBBh2ptPYuzBYfv6ft7Ycm+zn7xRtnsCEAjuGdotgb4b19IuhgV20yNddAhAIIQgljePrb48Y7ClfrlaigIhZvFzh6x6+Em/mKJcfwlAIPjLN7900zCuHLr834vVWYQlXQhAIOgSiQJ+zB3FyitSVQNjZeYwblg3M8M41w93S0kgmJz9fOjKZf/tB0eUqY4ABII61vTc+frw5f++U6FFmNKEAARCAIG4YcSIfmY8Q9enmhcZJq8lFwbQT+9irvgVrFIRCHGjedjg5cv3FOOMv+tPAAJBTYxo2m1/opm/e/DqR9arsQgrOhHwq8/RqY5a+TJ/fM0ldJD7n9045XXQSkEgGCxz+rAVj651wx159SEAgSAfiwwdsHI03cx6x5O30cLDNwxuPEGjaY/Jl4QcpULA676mVLg5rudNE6ouzmSMexwX0JrRy8BFXiBwdnj4ymV93DJHfn0IQCC8HYtmK81ePH6Y1R2yPzh2bYPYiIMPCHRPAI1EcQuZN6aaphXYfV6Y9Sp4URcIw1cs8wqVF2FDGR4QiKpAsLjFDqVOsJcaD7Mj9LZ/mH4OpU94QKxzERAJvmCNVKF4cCoO58Kxwz9mGeb9Xpn1IoCRFgh0vTCNHsS84o1y9CAQBoEg7nFKWxl2NJNix9Mptrf5GHvu6Ft6AGz1AiJBq3Bo54wX/Yt2ldLZoZtqaz6SYfz/vPTRbRCjLBAMi/Zwr8Iebi/bmw5l6SYQdGDi1AeIBKfkop/Pbd8SfUIe13D+uKoPMW484HGxrq6JibJAoANeYtTILa95o7xgCUAgeMsfIsFbnlEpDQJBcSQXjq1+v2WwB/0w6zSYURYIWH/gR0sLvkwIBO9jQCJB3DYlZkbwAYEsAad9CvA5JHDjqGHvNeOxfznMXjSbk4BCIBTFigSaEYBA8CcgGEnwh2tYS3XSn4S1rlr4vWjM8HelTPNhP52RDSoEgp/RQNl+EIBA8INqS5kYSfCPbdhKlu1LwlY/7fy9YWzVBTHDeNRvx2QCC4HgdzRQvtcEIBC8Jtq+PIwk+Ms3LKXL9CNhqZPWft48qvod6ThbrsJJu8GFQFARDdjwkgAEgpc0C5cFkeA/Y90t2O1DdK9HaPybP7rmPBbjK1U5bCfAEAiqogE7XhGAQPCKZPflHG/YFZuLXUBqYGtoxU7/oaHb4XVp0dgR56QM6wmVNSgWZAgEldGALS8IQCB4QbFIGZzzSjO+9fIXXj5JgTWY0JBAsb5DQ5fD7dJNtVVnZpixWnUtugs0BILqaMCeWwIQCA4IcpZJmMaBvrF4RR8z8WZNoqxpSLJ8ApXUbT8wYu1a9BMOcEchCwKvOIq3jK+Z2WzxZxSbzZrrKtgQCEFEAzbdEIBAaE+vhxlfP6miR3J4vGxCwjDSCWaUMcPw5PkOgeCmpYY7rycNKNwI1Hp//ZiaGUmTB3btcKGAQyCobQOw5p5ApAUCvelXxGK7hsbLeg6IJ1IDY4nmvvHECPfUnJUAgeCMWxRyQSAojuINtSOnxlhmnWKz7cx1DDoEQpDRgG0nBMIlEHjaZGa6zDCSfeLJjRPLKsqGJspDM68PgeCkhUYjDwSC4jguGF19Ko+xjYrNdjKXH3gIhKCjAfuyBHQTCO/rPfBIhRnjZYbZW7YuuqeHQNA9Qv75B4HgH9uCJS8YW3MyN/hmxWYLmssFP1wCgR+i1RTb6ND47eT/qiErlt2lA0v4oJaAbgLh0/2GqQWg0BoEgkLYmpmCQFAckJ/VDj0pzuJbFJvt0pxoADoIhOPpFNt2fD/bfvQgXb1Ik7C8iztjuDX/2h2vfVsXfvAjGAIQCOq4QyCoY62bJQgExRG5ZfTwCc0xc6tis92a+3yVt9OhnDr4xkyavdJ4hB1KnWAH0k1sX3Ojh1Xmi65t2P0tDwtEUSEjAIGgLmAQCOpY62YJAkFxRH4ypnpcmcm2KzbrSiDQeSnZN/oTVoYdyTSzbcfeYq9S5x/khxruvGsadn0nSB9gOzgCEAjq2EMgqGOtmyUIBMURWTRiyJhUMrFDsdluzY2s6M2OZVLsePYnrZNr3fpCIxW/+XbD7q+GxmE46hkBCATPUBYtCAKhKKLIJoBAUBzaG0YNHRWLx19SbDa65ji/69odu/8ruhVEzQoRgEBQ1y4gENSx1s0SBILiiCwcPWykFYvtVGw24uaMe69tePVTEa8kqpdHAAJBXXOAQFDHWjdLEAiKIwKB4BvwP9H1tJ/zrXQUrBUBCAR14YBAUMdaN0sQCIojcj2NICQxguALdYPzv16zY/cnfCkchWpFAAJBXTggENSx1s0SBILiiNw4ZvgI0zRfVmy2dMwZ/JFrX9j97tKpcGnWFAJBXdwhENSx1s0SBILiiEAg+A+cGvVDtAXyA/5bgoWgCEAgqCMPgaCOtW6WIBAURwQCQRnwOlqTMFOZNRhSSgACQR1uCAR1rHWzBIGgOCI3jR1ekzHMVxSbLU1znNVduwMiIYrBh0BQF1UIBHWsdbMEgaA4IteTQEhCILimHjPY0TIWi/WKxfaMTJYfGJOsnMoMo1N7xsPNNWotC4BAUBcWfIfUsdbNEgSC4ohAIHQPvNI0N48pqzRrEuXjksxsLjfNSur36fJGZx883Jxx0z0XBIK6COE7pI61bpYgEBRHZF5tVbXBjFcVmw3GHF3hUGaaewYmkj0GxhLHBsUSzQMTZaPIGWXtDg+3YELvt1UIBL8Jv10+vkPqWOtmSdmDWreKB+VPVARCTzOxZmpFz/KqZPmUoFjasYuHmx1K4UsDgaAuZvgOqWOtmyUIBMURubm6uipdznYpNtu9ObqduWcs9sroZOXAvvG40TcWz/Qw44O08tGhM3i4OQSneTYIBHUBwndIHWvdLEEgKI7IzeNJIFh6CYRP9xummII6c3i4qWOt0hIEgjra+A6pY62bJQgExRG5nkYQkpqNIEAgKG4EMOeaAASCa4S2C4BAsI0qcgkhEBSHdF5NzXCjjO9WbLZbcxAIOkUDvtghAIFgh5I3aSAQvOEYxlIgEBRHDQJBLXA83NTyVmUNAkEVacbwHVLHWjdLEAiKIzKvZiCNIJRjBEERdzzcFIFWbAYCQR1wfIfUsdbNEgSC4ogsGjlwWDSJU28AACAASURBVCpR/ppis5hi0Ak4fHFNAALBNULbBdSsXUsHlzLLdgYkjAwBCATFofwpCYQEBIIy6nj7UYZaqSEIBHW4a0aNKjPuvbdZnUVY0oUABILiSEAgqAUOgaCWtyprEAiqSNOxp/F4Zc3q1Y3qLMKSLgQgEBRHYv6oQUNZvOx1xWYxxaATcPjimgAEgmuEtguoOXy4t7Ft2xHbGZAwMgQgEBSHEgJBLXCMIKjlrcoaBIIq0oz1bmrq33fz5gPqLMKSLgQgEBRHAgJBLXAIBLW8VVmDQFBFmrET6fTgcevXv6nOIizpQgACQXEkfjp68JBELLlHsVlMMegEHL64JgCB4Bqh7QLKGRs2eO1arZ5Ztp1HQlcEIBBc4ZPPDIEgz8xNDowguKGnb14IBHWxMU2zpnrNGr0umFNX/ZK2BIGgOPwQCGqBQyCo5a3KGgSCKtKMJVKp0cM2bNipziIs6UIAAkFxJBaMHTKYG4m9is1iikEn4PDFNQEIBNcIbRdA2xzH0TbHBtsZkDAyBCAQFIcSAkEtcIwgqOWtyhoEgirSjGUsa9Lo+vqt6izCki4EIBAURwICQS1wCAS1vFVZg0BQRZqmGBg7edjatVvUWYQlXQhAICiOxM9qhw6Ks/gbis1iikEn4PDFNQEIBNcIbRdgGsZp1c88s9F2BiSMDAEIBMWhhEBQCxwjCGp5q7IGgaCKNGPcNGeMXLOmXp1FWNKFAASC4khAIKgFDoGglrcqaxAIqkjTXQyx2Jk1Tz+9Rp1FWNKFAASC4kgsHD58oFVpanUq2af7DVNMQZ05CAR1rFVagkBQRzvG2DlVa9c+pc4iLOlCAAJBcSQWjieBYEEgqMIOgaCKtFo7EAjqeMcZe8fwtWtXqrMIS7oQgEBQHAmMIKgFDoGglrcqaxAIqkgzRosUL6RFio+pswhLuhCAQFAciZ9VVQ2IVxj7FJvt1hymGHSKBnyxQwACwQ4lj9JY1ntH1Ncv86g0FBMiAhAIioMFgaAWOEYQ1PJWZQ0CQRVpWqTI+Qdr6uoeVGcRlnQhAIGgOBIQCGqBQyCo5a3KGgSCKtKM0SLFj9AixQfUWYQlXQhAICiOxM3V1f3T5Wy/YrOYYtAJOHxxTQACwTVC2wUYhnFRzTPP3G87AxJGhgAEguJQQiCoBY4RBLW8VVmDQFBFmhYpWtanquvr71VnEZZ0IQCBoDgSN4wY0S+WtN5SbBYjCDoBhy+uCUAguEZovwDOPzOiru7P9jMgZVQIQCAojuQNI/qQQOgFgaCIO0YQFIFWbAYCQR1w6iS+ULN27R/UWYQlXQhAICiOBEYQ1AKHQFDLW5U1CARVpLN2vkLfo7uVWoQxLQhAICgOw6JRffum4j0PKDaLKQadgMMX1wQgEFwjtF2AZVn/Oaq+/pe2MyBhZAhAICgO5VwSCJUQCMqoYwRBGWqlhiAQFOI2jK+PeOaZOxVahClNCEAgKA4EBIJa4BAIanmrsjaXLj2r1OjSsyifRkrbHK+gbY63qoot7OhDAAJBcSwgENQCh0BQy1ultRvH9Otjmj0OqrTZla1ICwTGrqRFiot14Awf1BKAQFDLm+n0UMtVPcoPNwgExQ1csbl5Ewb2MjLlhxWb7WQuyt8hquzV9D26KWjGsK+eAASCYuYQCGqBQyCo5R2EtbmjRpVXxtONQdguBZFNUwzfoSmGeUHyhe1gCEAgKOa+pLZ/7yZWeUix2W7NRfntBwJBp5bmny9LallZE6tu8s9C9yVH+Ttkcv696rq6nwXFFnaDIwCBoJj9XBIIlRAIyqhDIChDHbihuYwlK2urTwThSJQFAnUSP6I1CD8OgitsBksAAkExfwgEtcAhENTyDtpaUCMJURYIzLJ+MqK+/odBxxb21ROAQFDMXJdFVfnVjvLDDQJBcQPXwByn+4UW1FZnVLoS5e8QcbyBvkfXqeQJW3oQgEBQHId5A2nVdd/gV11DICgOPMwpJUAiwSCRYKkyGmWBYHC+oKau7lpVLGFHHwIQCIpjAYGgFjhGENTy1s2aqhMXoywQmGEsopMUv6VbbOGP/wQgEPxn3M7CbYMG9TzWp+yIYrPdmovyww0CQaeWFowvKkRClL9D1EksoUWKc4KJHqwGSQACQTH9uSQQKiEQlFGHQFCGWitD82qrqg0j9gmTW5+2GB9LMw6D/HQwygLBZOz26rVrL/OTH8rWkwAEguK4QCCoBQ6BoJa3KmutixCp77L/oXUJvn2iLBCok7iLRhD+yzd4KFhbAhAIikOzYMiQHrxX4qhis5hi0Ak4fHFNgASCo/7eUSYb3kZaIBjGr+gkxa/ZwIAkESMAgaA4oBAIaoFjBEEtb1XWnAoE4Z8fIiHKAoGQ/Za+R19WFVvY0YcABILiWEAgqAUOgaCWtyprbgSCHyLhkn7DWFQfpiSo/jhy7drPq4ot7OhDIKptWh/CHTyhe+wr6R77Yzo5GOW3HwgEnVqad764FQhei4SL+w1hMSa1JMI7GP6X9L/0Pfq0/2ZgQTcCEAiKIwKBoBY4BIJa3qqseSEQvBQJF9MIQkxV5RXboRGE+2gE4ZOKzcKcBgQgEAIIwvyx1cdpPLIiANMFTWIEQZdIwA+7BLwSCF6JhIv6DGFJM6IjCJz/bURd3cftxgbpokMAAiGgWNLhLeJq2rKAzLczC4GgQxTggwwBLwWCFyLh430GszIzmmMInPO/j6yr+6hMfJA2GgQgEAKM4/zaKtruaPQI0IWsaQiEoCMA+7IEvBYIbkXCx2gEoTyqIwiMPUBTdR+RjRHSh58ABELAMaSRBHEmQqAiAQIh4EYA89IE/BAIbkTCR2kEoSKiIwh0WdM/6bKmD0kHCRlCTwACQYMQ0pqEA7QmoW9QrkAgBEUedp0S8EsgOBUJHyaB0COiAoGYPEQjCB9wGivkCy8BCARNYjd/bNUeujVtSBDuQCAEQR023RDwUyA4EQkf6j2Y9YxFcw0C8fg3CYT3uYkX8oaTAASCRnGj6YY3yB1fL5UpVF0IBI0aAVyxRWAhHbXsx4mI+cZlyv8gjSD0iuoIAufLaBfDe20FBokiRQACQbNw0pvRLnowVal0K8oCgS6ZMamRyzzrVaKHLYcEFo2r4RmSCH4H1m757+89kPWJJRzWRvtsj9AIwru19xIOek4AAsFzpO4LpJGEV6mUavcl2Ssh0gKhR4+EsXx52h4JpAoLgSVCIJCzFokEy2en7YiE9/UexPrG4j57EkzxVP/H6KCkC4OxDqtBEoBACJJ+N7bnj615iRl8lAr3Ii0QRo0qM+69t1kFR9hQQ+DOiSPPyljWUxnquYQ4ECMJQYuE99IIQr+IjiDQLobHaRfDBWqiCys6EYBA0CkaHXyhhYtbaeHiBL9djLJAMOLxyprVqxv9Zojy1RG4a0JNyuJGPEMTDBaJhNxIgvjt56e7kYT39BrA+seTfpoPrmzOV9AahFnBOQDLQRGAQAiKvE27C2qrNnBmTLGZ3FGyKAuEI8eP95q8ZYs4awKfCBD47cSq8Wke32aROBAjCLqIhPf0JoEQi6hAYGwVrUE4PwLNB1WQJACBIAnMg+TGvHEj3mXw9HhmmBfSc+5cKlP5zoX8ekRZIKQsq+/Y+vpDHsQNRWhA4PcTR7auPWgRBx2nGcR0QxAjCRfSCMKgiI4g0FHLT9JRy+I5hU+JEYBAUBxw3OaoFjhNMQygKYa31FqFNT8I3HPS6JVpzs9rmVbIiYM8kdBBMNhZXOjUz45lX9CjPxuc1OJqFSdV2m4YxtLqN974pbFzp7gjBh8QyBKAQFDcEBYMGdKD90poNeQd5RGEeI8eg4YvX75PcZhhzmMCfz1pzGMkCt4pdi2IEYLcwsSWEYSWfyskHFSJhHf27M+GJPQQCIcyKbY31cz2p5vZISvNjmXSrOM2Hnrwf/7qhl1/9DhMKC5iBCAQFAcUAkEt8DLTHDpkzZq9aq3CmpcEHpg8hufWHOR2LeQLgpwwaPlb53UJfu5wyAmQWTSCMNSHEQQa3mcnqPaNlsUOUMe/O9XEXkud8ASvyaz/uKrhtV97UhgKiSQBCATFYZ07aFDPyj5lRxSb7dZclEcQWDpdNWL9+td04g1fihN4/JTab9MowfdICPQqOJ3QOpLQXhy0H0nI7XDw+0AlIRLOpxGE4ZIjCG9QR7+LfvbSjxABzVkZpPpjfe2ahtd+pdoq7IWDAASC4jhBIKgFbppmTfWaNbvUWoW1rgismjJmPMsYkw3TmMkNdqboW6lX7HiJwR566x/aaRqhi10L7UcVCk03+H9Wwrk9+rFKOmr5IL3lizf9/ekUe4t+h+FD5xz84Oodu68Pg6/wUS0BCAS1vNm8gQN7GX3LDys2W7IjCPFEYtTwp556WSfeUfLlwdrast6xg0kr2edCw2RfYtz4mCf1M9hBGgHom1tz0H59Qf40wttnIdgVFJ74F7lC+M3XNOy+KnLVQoVcEYBAcIVPPjMEgjwzNznopXMsHRP7opsySi3vPYzFhp1cex4z+Tm0jvkMuspiPL3l07ZcQ+nzgoztp9GBAbmti23TCa2HI7UJgrwDk4qKhNadDqUWU3v1NW65puHVb9pLi1SlQEDpF74UgBar49za/r0rWaVW+/KjvAbBMM3xNWvWvFAsLlH++z2TWXJIbGRVjBlDaDSfztQ3PkT1FcP72n9yIuHt3Qtd7VrI39nQ9VqE7HREq6BQP9+vPW5xrdkvrtmx69IQeAoXFRCAQFAAOd8EBIJa4DHOJ1bV1W1Ta1WNtaeqqysy/csupmH9z9CTfQq94feiL3QP6vgi9b1+WyS0n1poOySp4AhCy/0MnXY1dDiBESKhc1s1GH/g6obdH1HTimFFZwKRepDoDDrn241j+vUxzR4H/fFVPO7kQxrlEQRumpNHrlnznD+8vS314TFj+pT1sE4zjPhkiuSZFMmzycJYb62EszTOjbcMg/fPP/eg8HRCyw2PBc9FoKp3Wsug4MroUBLn/M/X7NhNwhOfUiYg35uUMi0P6u6vQHDmYJQFQtKyTh1aX7/ZGRl3uR5nLN5r+vBkEysfyE+YX6E5/a+QgBvprtTSzU1vtnvpXpIh3Z2F0Pno5dZRh+xoQhejCgpugwxp1Oquadg1M6S+w20PCEAgeABRpoi5o/r2rYz3PCCTx++0URYIJmNTq9eu3eAlw9WnTRyVttIfYJy/i4b1R1PZo+inr5c2UFZhAjSycpQeWj3zr3luG1XoYhtksdMWVV0ZHdKYLieR8M6Q+g63XRKAQHAJUDb7olGj+qbiaQgEWXAO0/NMZsbIdevqu8v+1OTq/mkjUR0zY+Mtk32Yxqc/TjM1vRyaRDa/CXDjCDN4L9Gxd7kNMjdaUPBCp+63SfrtftjKrzCM+y9/4dWLwuY3/HVPAALBPUOpEm4YMaJfLGlpdXlQlEcQ3kgd+VOjlTqHFvL1au30E1IBQ2JdCYhTiBKFREL+CYrtRhooQ9FtkApug9QFaD/TYDWJGBsSM1mceoI4OVZ4Jyt/csKGF3Gboy6BU+gHBIJC2MIUBIJa4K83H6YjbP2+AFhtnWCthQCdAGhxwzDF0twuFyx2GEFoWbwYzW2QvanD7yt+qMMXv/vQb28e8BAIpfqd86b9lCo9B/W+uZqGs8vZfgdZfcsS5RGEPc1H6Jz7jnfZ+YYSBQdIoG1LYwfBkDv3IF8c2BUUQW6DFG/04s1+IHX0VXGTDYl3PJFaFWwIBFWkdbMDgaA4IhAIaoHvSZFAoCtv8YkwARpJoLHx7EhC+9MWu961UPDK6NYTGt++OZJGGujfvBYJA6jDHxwzWD/TpPsbDFZBK2kNj971/YkyBII/XPUvFQJBcYx+VlU1IF5h7FNstltzkR5BgEDQqakp8aXQNEL+ToeOOyCyIwxFRh2KXRlNC1v4mETMGERv+v1JAETrA4EQrXjarw0Egn1WnqSEQPAEY8FCMvQiecRqZsfSJ2gjQhBX5/pXN5RsgwCnxQWtq+zab21sWXNQSCTkH6jU/uro/J0OLesWuhMJNOfPz69MRvR5CoFgo/VFMklEG7S+sVo4fPhAq9J8UycPdR1BaLQybL+4PldcnZtuzl6fK+aOZ1aW64QPvuhFoO04UamzErLTE7nFi10Liq5EglgUSAJBLxKeeQOB4BnKkBUEgaA4YKUsENL0hp+ih/Ax6vh3NjeynSeOM6erA86CSFDccsNpLrfDofNIQeGzEDpdCkUFtD+5sUU8dPxAIISzfcDr7glAIChuIT+rHToozuJvKDbbrTm3IwgH6Q3/NRrWfy3VxJosi4k3f783FopZ3jMgEnRqRtr6YvdApc7nJ7TeHNnFCY35FYZA0Db8cMwFAQgEF/CcZNVdIIhp3EZ60xdv+WJof0+24z/hpKq+5xGN90yIBN85R8FAwbMSqGJdr0sodOFT51GH3A4HCIQotBLUoSMBCATFbWLB2CGDuZHYq9hspM1huiHS4fWscvnbIDsJg4JHMts/UAkCwbMwoSCNCEAgKA4GBIL3wDHd4D3TKJcoc6BSpzUJBKbQldF9sEgxyk2mZOsGgaA49D8dPXhIIpbco9hsSZjDSEJJhNmTSto9KyGbLjsV0f1ZCb3oSXoedjF4EhsUog8BCATFsYBA8A841iT4xzaKJXd9OBKJgdZTFTsdydxOLLy9iLEXjSCcXRHVe8CwzTGK7d9OnSAQ7FDyMM38UYOGsnjZ6x4WiaI6EMBIApqEXQL5Oxy6PG3RxpXRPQ2DnQmBYBc70oWEAASC4kBBIKgBDpGghnMUrBQ8KyE7UmD/rISeNIIws1xcrxTFD0YQohhVO3WCQLBDycM0Px05cFgiUf6ah0WiqC4IQCSgaXRHgB5+tLKg5ZYkt1dG96ARhOkQCGhwESMAgaA4oBAIaoFDJKjlHTZrHUVC+/sYimxzbFu4yFhP2kozpQwjCGGLP/ztngAEguIWMq+mZrhRxncrNhtpc73o7W10Msb60zBvOf2IpWIm/Zv4HKBJ5pTWV+lGOjShrJzcNsiWaYjhdH3ziEQslPUt7jSmGIozimYKCATFcZ1XM5AEQjkEQjfcK6hzF29kvU2TDaarcwfGTE79vqO2CoGguIFHxFz7+xfar0VoWcyYv/WR0fqDqIqD7ATMkxM2vHhuREKLakgQcPTQlSgfSTsQuLm6uipdznaVIpgB9JY1mt6yquLqHqYQCKXY0ryps63bIFt3OEwrU9emvamdTCkQCDK0opQWAkFxNKMkEESHT2/3TJwiJ/aB98i+5uvVpCAQFDfwiJnrSiTkjzD0odGuEXFxnmdUPxAIUY1ssXrp9TQv5m0E/j6vtqqaOtFXdaxKGbWGBHXwg+lhV0U//anzD/sHAiHsEQze/447HMSag9xBShb970mJ8H9PuqcMgRB8KwzGAwgExdx1FAgf7VmmmII6cxAI6lhH2VJXImFM3KAFsVGuuagbBELUI9xV/SLftHUL7PVjh9ckDfMVnfyCQNApGvBFVwIdb4McSssOxKhb9D8QCNGPceEalkTz9iO4K1euHFReXn4elX0e51z8TC9kh/693T837nuT1X3zG3645LhMCATH6JCxBAmIXQzDYu2/19HGAIEQ7fh2XTsIhAJs6urqEul0eqlhGJ+nDr6HbOPoKAry/7tJCIRvXSZbpK/pIRB8xYvCI0Sgn8FZouSemhAIEWrCUlUpuabeFZ01a9Z8kDryf0jRy0vcnSgQyXJ/FwKh/qrLnZrxJR8Egi9YUWjICJi04FAsNxQHbYmpgySejq0RhEAIWVP2zN2S/wo8/fTTPyCaP3ZC1K4oyJUt0guBsO7qK5yY8y0PBIJvaFFwwATEA66MOv4K+h+i8xc/rYdsBuxZmMxDIIQpWl76WtICgaYSzqWphFUyQJ2Igvzym958g627ZraMSd/TQiD4jhgGPCIgOvg4dfji1gPaQMCSotMv6aeYR2C7LQYCQQVlHW2U9FeLphU+Rh3+/cUC41YUtFuD8MZetv7bVxYzqfTvURYIL6QyrHcspt0BTkoDrLUxnj1aSwzri7f80tgVoHVACjgHgRC2iHnlb0kLBAGRphga6Vd5IaBSwoAWNfPspbGtny7+u2nP62zDdVd5FT9PyomyQGhozrAjFIvh8TiGlj1pLcULEQ+VJH0XxBy+OIA4+1PyT5ri3PRNAYGgb2z89Qxf2xaRcCL7TKOPl6KgY1lCPxx/bRfb9INr/Y2qZOlRFghvZSy2PWWxSpp4HkJ3QNDOFEk6SC6IiQV8YlhfdPriLT/qZwci6vkEIBBKtT3gadka+dWrV7e9/kuJBElRcXzXq2zzj76jVXuLskAQoFc0pmj4WlwFbbIhYroBrT7b/kSHX04dv+jwBRLBBWi0+mpq4gwEgiaBUO4Gngd5yJ966il/RELedMOxV3ayLT/+vvJAd2cw6gLhkWPNrIxWslUYJomElgumzAiqBLF4T8zli8V7ud9aNTQ4E1ICEAghDZxrtyEQOiB88sknxUVtWS5SIwk21yAc2/kSe+6nP3QdOC8LiLpAEKyESBDiQIiESvotLqLSf7qhZV++eMOvpN+Yx/ey1aMs+wQgEOyzilZKCIQC8XziiSfeXm1os+PPFVNMVBzZ8QLbeqOjYxd8a3mlIBBO0BkUTzSms1MNFUIo0E8/mnJQLRLEgr3cAr6WLXvYl+9bw0bBHhGAQPAIZOiKgUDoImQkEizq7Fv4dBAJxURAd38/0rCdbZt/vVYNpRQEggBOAaX1CCQSsiMJLSKhtxlztY9eLN7LdvpiT37r0L5WwYUzIOCaAASCa4QhLQACoZvA0YVM7W5kadfxS44s5ETG4W3PsxduvlGr5lIqAiEHnYSCVXciY4pFi0Io9BbTDXkREf+7onXxnnjDF3/EF0WrJgtnlBKAQFCKWyNjeO51EwwxgkAiQaxJaPk4FAX5+Q9v3cJeuGW+Rk2AsVITCFrBhzMgoD0BCATtQ+STgxAIRcDOnTvXnDVrVsYrkXBoy7Nsx9KFPoXTWbEQCM64IRcIlAYBCITSiHPnWkIg2Ij8448/Lk5aFCcuvq0TaD7biWg4/OwmtuO2RTasqksCgaCONSyBQPgIQCCEL2beeAyBYJMj3dsw4NixY/uciIJsntbpiUObNrCX7lxi06qaZBAIajjDCgiEkwAEQjjj5t5rCAQJhmIkgVu80c6dCwWFBImEgxvq2c5f3CZh1f+kEAj+M4YFEAgvAQiE8MbOnecQCJL8HnvssckkEp61LRI6LGw8uK6OvfyrOySt+pscAsFfvigdBMJNAAIh3PFz7j0EggN2jzzyyKk0ZbAxXyTY3QJ5cO3T7JXf/tKBVf+yQCD4xxYlg0D4CUAghD+GzmoAgeCMG3v00Uc/bmWsv9oeSRB2aDThQN3T7FUIBIfUkQ0EQEA9AQgE9cz1sAiB4CIONJJwKYmEn9sWCSQQ0kePsOev+5YLq95nxQiC90xRIghEhwAEQnRiKVcTCAQ5Xp1S//vf/76NRga+YVckiKmILXP+y6VVb7NDIHjLE6WBQLQIQCBEK572awOBYJ9VlylJJNxFCxf/s5hIsHjLoYzPXfnfHlj1rggIBO9YoiQQiB4BCIToxdRejSAQ7HEqmupf//rXKhIJ5xYSCbkFjOI3TUmwbVdfVrQ8lQkgEFTShi0QCBsBCISwRcwrfyEQvCJJ5Tz44IObabrhZFFkm1AQ2xxJGIj/y2QyLJPOsAOrV7G3/u8vHlp2VxQEgjt+yA0C0SYAgRDt+HZdOwgEjyP/z3/+cxtpgfH5IoFGFphlWSyVTrFUKsVOnDjB3rj++x5bdl4cBIJzdsgJAtEnAIEQ/RgXriEEgg+R/8c//tFExZaJbY1i3UF2aoEEghAGTU1NjI5sZsdXP8H406t8sC5fJASCPDPkAIHSIQCBUDqxbl9TCASfIv/AAw8cJIHQJycO0pl0VhwcP3acHT5ymB09epRV/kGPA5MgEHxqBCgWBCJBAAIhEmF0UAkIBAfQ7Gb5+9//nqLphXhueqGxsTErDA4dPMQOHz7Mjh0/xmoeut9ucb6lg0DwDS0KBoEIEIBAiEAQHVUBAsERNvuZ7r///gyNIpip5hRrbGpkR44cYYcOHWIHDx7MTjVUvryDDdn+nP0CfUgJgeADVBQJApEhAIEQmVBKVgQCQRKYg+TGfffdZ6XTNMXQ2MSO0EmKQhwcPtQyzdB0ookN2bqZ9XvjdQdFe5MFAsEbjigFBKJJAAIhmnEtXisIhOKM3KYQjI177rknk12gePRYdnrh0OFD2REE8SNGF2qe38h6H9jn1paj/BAIjrAhEwiUCAEIhBIJdKdqQiCoibzgHP/DH/7QLESCGDk4cvhIdjRBCATxb0IkDNvxPBsQwEgCBIKaRgArIBBSAo9P2LDjgpD6DrddEIBAcAFPIqvgbNJP4re//S2tVWxZrHj0CP0cO8qOHz/eIhLojITq7VtYv/1vSBTtPikEgnuGKAEEokqAM+M3Ezc0fDWq9UO9uiYAgaCmdeQ4x4YMGVJ24w03Hj3eeDy75TErFPJEQjqVZsNe3MYGvvGaGs/ICgSCMtQwBAKhI2BkrHeM3/zSytA5DoddE4BAcI3QdgHZtQj0E6Of5K9/9eujYleDWJMgBIIQCmJkITfdMPwlIRLULFyEQLAdQyQEgZIjQNML6CdKLuotFUbg1Qa+TSQMGjSobN6N846IkYScSMiesJg/3UAjCQPe3OO7hxAIviOGARAILQEIhNCGzrXjEAiuEUoX0CYSxowZU3ndd687mB1JEDsaWkcThEhoPtHMmpub2eBdL7Fhr70ibUQmAwSCDC2kBYESIsDZkQkbd/QuoRqjqnkEIBCCaQ5tIuGrn/7qoLMuPGu3mF7IFwlt0w1i4eKL29nAff6NJEAgBNMIYBUEdCeQSFtDxzz70l7d/YR//hCAQPCHq51S20TC2zbnCwAAIABJREFUpZdeOmzmjJkv5xYuCqGQW7goLngSWyCH7N7p20gCBIKdcCENCJQeAUwvlF7M82sMgRBs/NtEwo9//ONThwweUiemG8QUg5huyK5JoDUKJ5pOsOZUM4mEV9jw11723GMIBM+RokAQCD+BTGbShM07t4a/IqiBUwIQCE7JeZevTSTMmzdvVt8+fZdlRxI6iASxuyG7BZLWJAzds8s761QSBIKnOFEYCISegMG5NX7ji2LHFT4lTAACQY/gt4mEhQsXfrBHZY/7240k0K2PQjCIkYRUOsUG79nNqkkoePWBQPCKJMoBgWgQGL9hh0kPJR6N2qAWTglAIDgl532+NpGwZMmS2fFYfKG4yCm3cFEIhNx0gzhxcQhNNVS9/qonXkAgeIIRhYBAJAikeeyMyRu3PxOJyqASrghAILjC53nmNpFw++23/w/p9+8WXJMgFi6SSBhMUw01u92vSYBA8DyOKBAEQkmAzoP/27gNOz4eSufhtOcEIBA8R+q6wDaRcMftd9xtWdZnO043NB5vZNndDSQSxJHMI11ON0AguI4ZCgCB0BMwuHHf+I0Nnwx9RVABzwhAIHiG0tOC3hYJd9zxUCaduTB7VTStRcjubKA7HLLnJNAURHa6gdYk1LjY3QCB4GnsUBgIhJCAcdmEDQ23h9BxuOwjAQgEH+G6LLpNJNx5550NJARGNDU2Zdch5LZACpFwornlnIT+dAPkmFcaHJmEQHCEDZlAIBIEeOOh3hO37TsSicqgEp4SgEDwFKfnheVPNzxHIqG200gCnZuQ3d1AIwmD6LTFUQ6mGyAQPI8bCgSBMBD4BR2EdGkYHIWPwRCAQAiGu4zVfJFwnIRAPHsss9j6SFMNYndDbiRB3N3Q/619rFZyJAECQSYcSAsC4SZgmsbl49Y13BbuWsB7FQQgEFRQdm+jTSTcdttte+nApH5CFGSnG/LWJGSnG2gkoe+B/Wz8yy/YtgqBYBsVEoJA6AjQw+NZk7Prazfu+N/QOQ+HAyUAgRAofinjbSLh1ltvPUoiISl2N4gdDdl7G8TCRfrv7C2QdCzzgP1vstpdL9oyAIFgCxMSgYAuBFKM8yPMYEcMy7yfsfSfx2/auUYX5+BHdAhAIIQrlm0iYenSpc3i6GWxJiF7LLO4LpqmHcRCxraRhINvsQk2RhIgEMLVCOBtNAnQl/sQY8ZfGbf+YTBzW8WJxj3VW3fvj2ZtUaswEIBACEOU2vuYLxIaaQdDLCsS8qcbxMJFOidBCIg+hw+wiTu3d1tLCITwNQJ4rD8Bzvkew2Bia9Emw2JPmMx4tHbTjjf09xwegkALAQiEcLaENpGwePHi9iMJrYsXhWjIjST0EyMJ3SxchEAIZyOA18EQEHP6GYv91sqc+HXvQ6xx9a5dzZ9iLBOMN7AKAv4RgEDwj63fJbeJhFtuuaVNJGR3OORNN4idDWJNQu8jh9jkLkYSIBD8DhXK15mAwfgGupXoKWYZa0yWfpYdT2wZ19BwQmef4RsIqCAAgaCCsn822kTCokWL2ouE1pEEsXAxO92QTncpEiAQ/AsQSlZOgBbwsbdobHS/wc1HMwn+10l1DcuVewGDIBABAhAI4Q9iViTU1tYmLrvssiZxqqKYXsg/KyE33dCyJuEgO+mV9lsgL6hMsl7icld8QEBTAgZnTfSW/y9msvvTVnpz0kzsGre+4U1N3YVbIBAJAugVIhHG7FoS8RNbdPMimlVozoqE7KmLYrqBfsS9DWILZCqdYj2OHmFTdm5rq/nIeIydVh6PBgnUIhQEqLG+aTH+Au3P32Zw/iTnmcfHb37F3r7cUNQQToJA+AlAIIQ/hrkatImEm2+6uUUkkCgQ2x5zpy62jSTQdEPlsSPstJfeFgmYZohOQwi4Ji+bhnEHO/LWHeMa3jocsC8wDwIg4IIABIILeBpmzYqEz33ucz2nTZ12SCxOFPc0ZE9dpLMSxE97kXCURMLWbDUgEDSMpgYuUYPaYhl8pWEZK2gB3/by/ZmtNbt2NWrgGlwAARDwmQAEgs+AAyg+KxLOOuussk9c9InjYkrBjkg4JRlnY5KxANyFSVUEaLV+hjNDHLxDP7zetPg94za99IAq+7ADAiAQLgIQCOGKl11vsyJh7ty51T179Hy5uEhomW7AKIJdvHqlo8N4MnT07v2cG39hVmYjHYCxb8L214QQoHV9+IAACICAMwIQCM64hSFXViT85JqfjK4YXNFQTCSU0TTEZ17ZyiaVYbFi8MHlx+hNfxN1+ptoPv/pDOdPTdr4YvfHYQbvNDwAARCIGAEIhIgFtEN1siLhhhtuOD8RTzzeJhLobITcVdH5axLKGo+xH+/FQnL/mgTfS9v07ugXs34+eO3OPf7ZQckgAAIg4J4ABIJ7hrqXkBUJ8+fP/7hpmH8pNpJQSQcs/egNiAR7QeUvEdpHLMaejFmZrWXc2j5y8ysH7OVFKhAAARDQmwAEgt7x8cq7rEhYMG/Bdw3TuL47kZDJZFhZcxP7n92lN6JNh/Hs5QZ/3WDGM8zkD4xb9+JDBA5n7HvVClEOCIBAqAhAIIQqXK6czYqEmxfefKPFrWs6iQS6DVIcyZxKpWidm8WStL7thw3rXRnUJbNh8mWGxe9tNjJPlWUS+9Zt2rEfl+voEh34AQIgoCsBCARdI+OPX1mRcNOCm77HGf9x/pqExuON2TMSxNkJYhSBpiNYIplgH3r1BTZp7y5/vHFSKmfNtGp/My3Pf5Yx64mMZT590qYd9L/xAQEQAAEQ8JIABIKXNMNRVtuJiwsWLNhJlzgNF0cwi9GDrECgExgzVobObTZYIpFgyWSSVVRUsE88/FdWTosbvf+IvfnshMENOnWP3x032K/Hbnix/WUR3htFiSAAAiAAAkUIQCCUZhNpEwlU/eTZZ589cNasWd+JmbH/Frc+5gSCGTNZMpHMigQhFsRP3wP72CmrHma9Dopt9t18ONtF9z89xgy+Is2Nrb2STduqn9ldJFNpBgO1BgEQAAEdCUAg6BgVNT7lRIJJ5hKtP8nW37kjFcUCvRT9NNPPCfpJ0w8t2scBPGpCBCsgAAIgEBwBCITg2OtgORd/IQiEUBC/xU/u38VJfEIkiB8hDHIr+nFCnw7Rgw8gAAIg4CMBCAQf4Yak6FwbyI0o5H7n3M+NGOREAcRBSAILN0EABEDADQEIBDf0opW3WFuAMIhWvFEbEAABEOiWQLFOAfhAAARAAARAAARKkAAEQgkGHVUGARAAARAAgWIEIBCKEcLfQQAEQAAEQKAECUAglGDQUWUQAAEQAAEQKEYAAqEYIfwdBEAABEAABEqQAARCCQYdVQYBEAABEACBYgQgEIoRwt9BAARAAARAoAQJQCCUYNBRZRAAARAAARAoRgACoRgh/B0EQAAEQAAESpAABEIJBh1VBgEQAAEQAIFiBCAQihHC30EABEAABECgBAlAIJRg0FFlEAABEAABEChGAAKhGCH8HQRAAARAAARKkAAEQgkGHVUGARAAARAAgWIEIBCKEcLfQQAEQAAEQKAECUAglGDQUWUQAAEQAAEQKEYAAqEYIfwdBEAABEAABEqQAARCCQYdVQYBEAABEACBYgQgEIoRwt9BAARAAARAoAQJQCCUYNBRZRAAARAAARAoRgACoRgh/B0EQAAEQAAESpAABEIJBh1VBgEQAAEQAIFiBCAQihHC30EABEAABECgBAlAIJRg0FFlEAABEAABEChGAAKhGCH8HQRAAARAAARKkAAEQgkGHVUGARAAARAAgWIEIBCKEcLfQQAEQAAEQKAECUAglGDQUWUQAAEQAAEQKEYAAqEYIfwdBEAABEAABEqQAARCCQYdVQYBEAABEACBYgQgEIoRwt9BAARAAARAoAQJQCCUYNBRZRAAARAAARAoRgACoRgh/B0EQAAEQAAESpAABEIJBh1VBgEQAAEQAIFiBCAQihHC30EABEAABECgBAlAIJRg0FFlEAABEAAB/wismzHhuGzp0+q2Vcrm8Ts9BILfhFE+CIAACIBASRFYN2Mil63wtLqt2vXH2jkkCxXpQQAEQAAEQEAnAhAIOkUDvoAACIAACICAJgQgEDQJBNwAARAAARAAAZ0IQCDoFA34AgIgAAIgAAKaEIBA0CQQcAMEQAAEQAAEdCIAgaBTNOALCIAACIAACGhCAAJBk0DADRAAARAAARDQiQAEgk7RgC8gAAIgAAIgoAkBCARNAgE3QAAEQAAEQEAnAhAIOkUDvoAACIAACICAJgQgEDQJBNwAARAAARAAAZ0IQCDoFA34AgIgAAIgAAKaEIBA0CQQcAMEQAAEQAAEdCIAgaBTNOALCIAACIAACGhCAAJBk0DADRAAARDwm8AzJ4+tOf3ZHa/6bQflR4MABEI04ohagAAIgEBBAnXTx/QxjeRB8ceYlT5ryrqGp4EKBOwQgECwQwlpQAAEQCBkBOqnTXifYRoP5bsNgRCyIAbsLgRCwAGAeRAAARDwksC66RN/ywz2xUJlQiB4STr6ZUEgRD/GqCEIgEAJELDzMIdAKIGG4GEV7bSpjuam1W01PHTBk6K0c8iTWqEQEAABEOiGwIZpky6xTP5nu5AgEOySQjpBAAIB7QAEQAAEQkhg08xJ70pz/rCM6xAIMrSQFgIBbQAEQAAEQkgAAiGEQQuZyxAIIQsY3AUBEAABQQACAe3AbwIQCH4TRvkgAAIg4AMBCAQfoKLIdgQgENAgQAAEQCCEBCAQQhi0kLkMgRCygMFdEAABEMAUA9qACgIQCCoowwYIgAAIeEwAIwgeA0VxnQhAIKBRgAAIgEAICUAghDBoIXMZAiFkAYO7IAACIIApBrQBFQQgEFRQhg0QAAEQ8JgARhA8BoriMMWANgACIAACUSAAgRCFKOpdB4wg6B0feAcCIAACBQlAIKBh+E0AAkGC8Jw5c2ZaljXZZGZvTh9mslfoV/3SpUt3SRQTuaRXX3716GazeabBjaHc4E3EZOeJEyeeuOuuu45HrrJ5FfrGN75Rm4wlZ1qG1Z/+OcXTfJ+ZMJ9cvHjx3ijXu0DdjCuuuOIrpmG+k2J/Gv29P+Osia4cfol+r0plUr+/4447Xgwzk/pp4y5iRux9hsGncMaGGfQfVJ8D9LONcb4ibZ645/S1O/eorGOUBcL60yaNo0uo3msa/CyLGRPpNr7+1J7K6HcjPXl3mow9y2PW4//3zPa/z2XMUsk9aFsbp550YSZuXWhwNpMZxnD6zvUlLkcZ46+Rb8/Qv//rtPptj3vhJwRCFxSvuvSqgamy1Kv053Ip0Ab72JIlS/5PKo8PiedcNudDdottTDWuos78kN30JJQmcItvtZue0r2ZPJgcvfD3C49J5NEq6Ze//OXy3r16/4OculDGMSNjnL749sVrZfJ4lfbKK678nN2ybll6yx/tphXpZl82+9MkkP+fTJ5sWs7mL7l1ybel8ynOsH7m+P/k3LzLkVnDSKcMPvSMZ7bud5SfMePxUaPKiuUdMLDigjTj/yyWLv/vhsXmWow3yOTJTzt93TapdmLHzvrTRvXl8TL6bhnn2EnfVRrDYM8OjB89vWb1rkY35eiUt2768MqY0ed+zvh7nPpFguH+DNt6yYx6lpItQxeBUD9tgu1nWaH26tl1z3OumPMPCsYHZUF2Ss/ZbnoQVrsux2EBs6+YTS869j5mzPzsLbfcUvRhP/vy2T8nFX+pvVILp7K4NenWW2+VERduzLnOe+XsK79APv/OdUGcraH2cKbrciQKkGkDS5YusfUduuLyKzYZhnGKhBuFkwbAo5jP9IUx6IH4JoEYUCyt/b/zB6fVbZN6nqw/c+IonqbRFw0/0+q22monxVx/ZvKoofGK8g2UbkixtA7//lnytegzzWHZvmdbN23inSTA/8trQ9xKf2T6uoYH7Jarg0BYN33iS9TvjLLrcy7dnoPp8g80NJwQ/+260dLD9A9UjiOV0p3jNBS5c/HSxaNlK+c2vUznQD7OIx+/05XNyy67bGTMjO1061MuPw2JZZbeujRB/21bxHhl224537zim+dlWGal3fS20xnsShphWmw7vYuEMm2gmECgUaPf0KjRl124UzArifFamqLb4XW5suWtnzHxMDXGXrL5bKfnxo5p9c/X2kkfZYGwfubEX9MUwVfscPAijcXTtTPqGwJvX3brsn7GpMfpOzHLbnon6WREnhYCYcZEJ/1EHdVzZo6PY4HwzW9+syKTzoihb8dl2AkSvaX3o7f0g3bSepFGpnOgbvof9Hb74UJ2adRgBZE53wufOpaRzqTH3X777Y6HO/3wSZRJ7MRQXNyv8lsFkm/l5/yWaQPdCQQqR8zx+vb9oLUrty6+dfEVfvHurlx6IL+bHsjLVNmm4d7lU+u3vrNbnyI4gkBvgVuoBZ2kinMHO3upsxgakG1bZutnTLhWvKjZSuwyUZgEwrrpEzK0zoKWnMh9OtbR0cNr9mwaMufuhsxl3KYGcDe9qStRzzKdAzEoOPxNZYhFWH1l6iib1jCNq2lR302y+fxIT2KxP4lFp/PG0i5RpywavhN1bMuWTBsoJBBoEWbPeCx+xJYxl4lIJPyJRILnI3jduUVvR2JtyAyXrstlN63Tpj2zfWOpCIR1M8a/nzHzQTlI/qSW6Rj98aBwqTR6ZYnpLRU2ycizU+u22p4iDHIEYd3U2pNYLL5FlovJ0tNOq2tYn59PGu6c2XMy9CYnrUxkne2U3mAHaYi5n+tyihQg0zlQF/UijSCMzS+S8tOqWNbDbz+z5Rvsh8TkJ0psdWFkzuVzPkI7MJQvLvVTJMi0gY4CgcRBDYmDV1TGhETCp0gk3KvCppMHnxd+2emkojTFsG7mxKfo+XKWF+y8KMMOfy/s2CnjcVqc2SdeLl7CFH74R2lNzN/tGnTyPfGKsRPb1NaOTqvf2mmqUEog0INTrNjvbReS5+kKdMhe25DpHKiDPkIddBsPyruK/DnXa5+6Lc9gF5APnmzNkfWbFqZeR8PMP5XN51X6YvP/Tu3ItIEOPhit0wpOTTvO9/qe1+P33ntvxnEBNjLSG9t+emMTW1OVfsjm/ul1WwcWMxolgdCyQ0F1J9gt4TR1YGL9U6CfDTMnfMXixq9VOyHbeTvppGVtFGKwftqk+dzk18jy6cq2bYFA+7X30VC/h6uUZavQmt5g91CHeInD3EWzyXQOorBcB3HllVdOsjLWc0UN+JCg6URTkrZbSm/FceMKtYd3UXt42E0ZHuQ9QfzlttPaMCrTBmIsdv6ipYuEMBRrMHyb9rDhdltbtJNWNk39jIn/poeF4y1jsvby02dOWGNnbt5e9DyIKAkEUX8nnYwbzsXzGndOq3v+68XT+ZOCttB+lwavf+ZP6d2XKtt5O4mdrI1CHjuxazB+7dS6bQsKlWdLINCD79+UOZCHQyGnm1PN1XfeeeduPxqK7EM+JxBk83ntu19v04X8vPTSSxPlZeXNXtfBSXkkUq6n9Sk/cJK3qzwysaQdCj9betvS71Ee8faufuotrxJ04NLltyy55TYvWYiyNp5aW51JxsXZJoF87D44oyYQSJTRS5mXW0fdh89uLNxbal/C5pmTLklx/mevy7Vbnmy9nXTUsjY6+r5uxqSXaWnWCLt1yqXrzm5RgUBb9abRVr16WaMF0qdoSP4QzXUUHSq0Y8uvDlGmcxB+Cj8ozxv0PwfZ8duvNDTU/1fa9vYJv8rPL1eWUX5eWr/SRJ36LfRv22ntQi39bzEc5mro0uu2IFM/4r6Ozjf4HrXrh1SwL2bDaxbCnpOHXRd+pojXHoq52MOfLFaX1r/vpweYrWdG1ATC1nMm9Dp+wjhsk9PbyWg+mb5bB+jhTnPKhreLpTlrprnqoodRSfvcTYZNZ0ycns6wOi/LlCnLsGJfmbpuy90yeZx8Z9wLBPltjYdo2oi2BqW7qltRgSDzsOxohB4GZ1Gn9XRXxqlscaRwhQz4vLQpehjafcjYNiFb3/4D+sfe2v+W3blfEYiN9KZ3n8WsCdSpvI/+27MDT/zoHDqCk+WTy0+d6I2Llyz+bleBoCmLG6njcHpSoKdTDU7raKeRkUB6tcws+8DCJQufFennzp0bP7D/wK/ouyJ2IohjiF19qJyv0HdO6mHWncH6mRP/RVsM3+vQKVud+8bTTzovY2Voy6TRabqorDFWNnnLFlujVU/X1vZO9okVHwI3WS3jxtdk6hSz0mdNWdfQ5bNMpiyZtEU6mjQND8+j4eHv2ylzy8zayU08trH1uGs7WQqmSR1lA8/Y6vi0S2m7Tjrbwka42Pr3LDPTn522pqFtOvjJqaNHlptl36PjwD9FbbBPx7y96OCgca0HB9l13onPbgQCbWukI9oNKeFGnf/DtDOj25mBbgWC033t1BncR53BJ+3ApBGK8TRCsc1O2o5p6KS+MXS6oKcnp/nRORCP54lHl3uZL7744tjQIUMPU7pKJxzy8lgkElx3Ml35cOXlV36M7k+4X9ZHmR0HTvkfPnK44u67726S9a1Qeqc+dGebtqVOoW2pm4r458kiRy+FopMHnahjQ93WOD1t7QrnNix0INBLdCDQqNw/uHlodsV63dTxF7KY+YhMWwlQIIiXinbfaRJsC+lMCOmFaLn6rj+NTpyMuzpxklNclEynOW1/+bE1ufGd0+qft31Wgtg6uWH6hPncMK4W5Thpg078dmJH+DeXpjY/MmOi9HfNjr0uBcLll18+mt50iy4M6vQlM9gXaRHh72W+fKKDHDZ0WJfDHN2V5eXDUNjxunNIliV7Llxo7y6Fqy67amTKTO2UYdcxLa1mL6PV7LbeuGTtOGHjJD5O7Ii6OLGlQCDsIL9snQSY84UO2ZpD03FiGsbRxysOG2ZM+B1d+PMFGSfogWLRW4lrkUoHBJ2gN7pH6O1Y6rhlO76GSSCsnz7pgzRdIO4yYbQ6/fvTn9nm2a4hJ52Yn8KtY+w8OG/jEeoE322nTXSVRlx+NXXD8y/IluGErZ0Ou5AfNHpAX1O6UUPmkzFGTVv/PK1Z6P7TZaGOHtKc/YnOBXB0aMvXv/71fol44q1iDnf8O40+fG3R4kW/ks3XVXqqt3gLlRqq6aospw9qR+zfdsLT4fa2Tmv27K00JTJBhrPT+gsbThh4tdXPie2CXAz2NIllR3vZaVfMJ2lXjNOzDZ4m9o7s5tdD5UNOpl25TRsmgSDqSqMqb01du9WX7aVOYtzK/z7q0GyNEjuJl3iLFwchOckr8hza11Txzp07PRlRdOKDE65OBELd6ZM+aFotAtL+hx+mMx06TaUUyl9QIMz+xuyzaVDrSfsGsynT9FBytdiM5qH/RPNjn5G069mbY2vH5MkpiG46RzcjKqIObmx3xV6206S58D40Fy6/wKrVAbrD4FTaIdDtyXkFfN1DdR8m2346ppetayF7VP9dVP8aN76QH0IwOzoczG0beKq6uqJ8aE+pa8ebEkcrzw7BjYBhEwhu2lCxvNQRx6kjdrRF2kmHVsyf3N/dnJJYbOGdXR/cpFMlEPy2U1ggONjP7faBlAuGo4ezwT5Db2qebIGhY6RfozdlV52MF8P85MfZ5IesSGvByNl9NJLjmbqnmIj70mWY7KL24KpzbBVr0nc7eNEOHbXBDk8TL/xoZeDobAW39tfPnHQPLai82PZDknNrWv0211MLtu25SAiB0B4edTKy3+9sAX4JhA0zJn2BrtZ2dBOsXz7JNje/O27hz7oZE2gdjXGhpG9St3V2Egj0Fl9Nb/FSe54p/Rbai36ypKMFk9Pahxm09kGc9W77Qw8yTrccerJohjrmHdTBjrFtvHPCZfRwdrrqu11p1FGJN3BHN+W57SDyHZHtML2yfcX7rygzag2pYUJauHohLVx9zEX8HE1v5NvzcsEkfR+fpe/XZNn60CVno+mSs52y+XLpZR9wdCj+qTPqt252ak9lPgiE9rSdDuf7tZtBtu3lahPn1qRT67dvVdmWurLlpA6y4kaFjU4CQbYzEIC86hBysJ34QEO65TSkm73D2s2HbItLLhzfnqYDC1H/WDxWuWjRokY3LETeKy6/4i5a//KfEuW8QgxGSqTvNil1kM3UQcpMXbleg+Gk/eVVwtPtt2IbJG2jlR8C5ux+GkW6yGkcZB8+sg83p355kQ8CoTNF2Xi3lvAWxd3T03XXz5hwPWd0rojkh7Z7vkgLWtvdiyNZhKfJnfCU+Q6tnz6xiRtya+XE4mGxiFimol4IhJ3UIYyWMVosLXUKF1GncF+xdPl/J4HwMgmEUTJ5CqWlzmED/fsUJ+UkzMR7blp8k6fHD9N9B4eobvL3XxjsEZp2cbWCVzCQ7Sy9Fkhf/OIXB/Tt03efTDzc+iBb5w7tcDC1wzdl/C2W1qk/bjjIPuBkHm7F6uv33yEQOhPeMHPS9y3OpS9+8zrusu0uVxOv/XDbBp3Uw24daMTHpDUaUtsaKc8/6T6TD8nWq51AoOH1H9PwutSxtV69uXd03MlD0c0DMWef7IoTu6bLghTpvbDf0S4tWEzSFlBHIyNe+CMZhwzZjDth110eSR/ELZfjSRxJb03KawOO5v39agNUf7FtVWYUJVsVN/GXesCFaP2B4AKB0Pnb9kJtbdmRvnGp6TxRit1Ozc4z4dmp46c0x0zxgib1MWP8gtPWbAvkwrquHJX6/rQWYpfl+ukTMnRGg9SUut2yO9anvUAIcHFiAYFwjP5N6uAgL7a50cN4Ndk9U6qFtiT2dGg93750B9ma2U0HIYogu2I4yvb+WhKLn6C35786YNdtFprmSNM0h/0FcAZ7ggTCeU79cMqb6v8M1f8Mp3a7ykd3Xwykuy+kRyWcxt/BnHSKHkCen2rqNcdceRAIhcn62anZiaUT+16LFDt+2knjpC52OvFnzh9bEz+ekLpOPtacGjJl0w5xHYD0x61A8Hx6IVfUAonPAAAgAElEQVQDWqz4EVqs+H+SNbqHHoqubnqkzsHRlc1OH8Z26vfNK755eYZlltpJ2y6NwS6hjvIe6XytGWQ7Sr8Y0DQLXZPIF8vUw40vsvXO+UULA4fTwsDXZfy0m9aJT04ZPHf2pJFNzXynXd9o1JHT+fxSbzS2y/YhIQRCdAQCnZ18ysy657PHluv08UsgULlSL220pW0fnXng+J6gNoFA+87PpX3n2Wtr7X5oxXgVrRgXW2R8+ah8KOYqQKfYraB35vNlK+T0YWzXjhMWtLmjgXZ3jLNrIz8dvbX2obfWgzJ5/WQgW383vsjayjFyY7MYZyc+OfVn08xTxqR5akcxn/L/buftR6Y8P9NCIBSm6+T2yFgzHzNl0zbXx93Tlj067M74qmzcdW13fggEis9c6rB/JMPILZ82gaDyAWS3gkH4RG+rj9ML0Sy7PqroHIQNJyxEPqedBNkT+5BtH7NLzH5Jw+syux2kEMvW32m9g2BtB4Rs/d3EXuSVfcC5fRDZYeBVGgiEwiTpeOvV9HIkNb1qcONDU+uf/6fb2Mi2t6w9g62etnbr2W5t+5HfSX2KfYdkyzRY5j1T615wtWheb4Fw+ezXqREMlQmgm46htXMQe+jpBkypz36ya+tKWqlS8xJTB/Fv+s9ub94qVLZTHrIdUiKZGHTTTTdJ7TaQYSHrj8nNC2+59RZH5yHI2hL1oNGaN2i0xrObOTuyceIT3ZA48LbbbtsvwzmXVvZhRNcynT1t/Vaxfkf7DwRCFwJhxoRfUq/7H1IB5Gw2TS/JT392MCLd3ih/sQ5Vqh4eJ/a6PnTfwga6b0Fqd50XfNwIhJeo83FzoFDRkNA6hHNoHcITRRPmJzDYH2je3fabb4EHsbjlTe50Ks6W0p7z2VJ+SiZ2euulKoHg1I5dDA46SMcHVjmwJU6vfJjagLSAk6h/p1v9iuWlKcBTaQrQ0eFFXj/givmq8u8QCIVp08VQc+hiKKlLwujMggXT656/1k381k+b+CNuiksJ5T5edIByFu2n9vL7Q9sz4n0kj8P2ik1WIND6gzNo/YHUXecmM79yy9Jb7raPTD6lwzsJXB2U46QjTmfS59x+++1PyddQLoeTjiuWjs1adMeiFXKW5Kc0fBcIl8/eRaNJVRL12Ec+OVqc44QzDbV+cvGti6XO7pCoi5hiEjevjZDJY1jGmYtvW7xGJk8urZMHXMKIjzhl7bNSp7A68c1tHgiELgTCaSd9lMetv0ny/R11Rl+SzNMuOa0/oDs/jAqpMrj1/6bVb/+sVB6FiZ18f7rq1OUXJrKfU1n/7UV1WwTC7Dm/pyHSz8sU6HeHkPPFycPajW9OBILMlc4yjDumdcKCyjhGPHrK2CXBOJ8Eo8x9865EmR3f6PCsH9LhWf9jJ20ujdN24IRzeUV57/nz5x+R8U8mLfkkfYCXWEtD60KkxaHwS7fz+WVYFUsLgdCFQJgxcRZtcZU6T4D6jXum129ztXPMSWdalogNmLx6i/Ttv8Xahld/d1KnQgJh4+kTRmcs40UZv7waPRA2swLByQPR6cNXpqJB+OZEIOjMQjCU9Y/ag9gzK/P27cn1wt21DSe3O8rWOyhRauc7QTERF3dJLchyIxA2TZs4PW0ycWiY9MfLB5S0cRsZIBAKQ6o/o/ZMIxOXWkdCUwx/oymGj9vAXjDJXDoV8COSpwKKgrRvYzMmSh+2VqhOskLjzeYDPd+7aa84Q8iTTxgEgjhFUOoQFqcdgyCquUDYSS5K33Mgy0NWMNL+/3Np/7+zmydtNmNajzKc1qPstpk8m0y23joLBDos6nE6LGqWTP3dCARhR/bh9LZvvIn2XssNGctUzGVaCAR9BMKGGZNPt1hGehqsFATC+pkT5nBu2F8TwlkDLRh1tK29q69UGASC9FWkdFHROLqoqMHJc0RngXDllVd+3cpYt8vWS7ajlBUIsuXL+i/SX3XpVQNTZSmp0wSd+iVbfzdixC4L8kl6d41rgTB9wkpaOe3sREqND0+CQGhpdeJ45aZyPrg5Ge9Ha2h6WHFrKu3+uc1umxTp3I4g1M+YsIOmDmUXu6dJIEgfPS5TL7dpnYjrjqJHtgw/RJP+AmH27NuoFX5DJmD0bPoszb3+P5k8ubQ6CwR6ix5Nb9FS81FOOi/ZDtJpRywTn69//ev9EvGE1JyjU79k6++EsUzdRdogBIK7UYSWGvrx0JJl1zF9qQmEzSefPDZVnqJt0oZY5Oppx+pWIMh2giKWyTg/9+Snt/k6Yum6jbmcYqCFm7SbzrC9m84wrNOnrt2+1q3fHfM7Egi0MGUL7fk+2WtnCpVHi9OmksJcJ2XLYPfSVsdPSeVpTayzQKCrf5N09a/0xU0yHSXxHkS8pc7tlinfSUxEHocCQRz/Kz0XCIHwdpTWzZy4kAhe5TRuIh9dK/M/U5/ZOtdNGV7mjbpAeGZK7eR4Ii4OL5KejpTlHIRA0FF0dhKhrgWC/TUM4gpncZWzbOzspDeuuuqqianm1PN2EufS0DDUYjqE5kqZPG7Syj6wScA0kYBxNAeqs0AQDGVZiDyHjxyuuPvuu23d1DbnG3Nm8hh/xk28dMnr9PIuJ4z9FklBjSCIWDp5yyvUBnR5sEdRIDxI0wVDHdzG6Pa7CoFQmKCT70zu+0FXOT9GbzW2D+vz83tl0BXP36I3hJtkGgodwPIFOoDlDzJ53KRV+cCOokCgRYQn0SJCWyKQ7qL4Hu1tud5NvHTJ239A/wSNuogDhqQ+KtubXceCFAj3TJ6crK3ISI9cFaobzXV/nI7mld1rbxeTrXRREggbTp/4XstiD1HFbd+6aguSzUQQCN4LBBlxYXB23dT6rTfYDJd0MmPO5XMeoNOzPiSTk0YQ3kkjCMtl8rhJq/KBHUmBIHHsMLEWK4pPdxMvXfI2nWhK3nXXXSlZf1S2N7u+BSkQhI8bzpj4HivDxHHf7j+cNdNq6zL3BTkrIQoCYcPMkybTi1rgtxi6EQh0zWysdsZEaQHv5xuzsxbVOZdMJ5/LLepVP3PiAur0r7brR8zi75+ybtu/7KaXTWfQG+N60p6nSWVsZuOX/HzJC1J5XCRW+cCOokCgt7Yv0Cl/tkZ8aDudRdvpAnkbcdFECmbdtHlTYvny5dIPIJXtzW6dgxYIws/1Myb9nhYASx2o1l39uJU5afq6F2yNbNnlZCdd2AUC3eqXoi9o3E5d/U7jRiBsmDGetjiakdviKJg7FQhO8/kVZ4NuL3yBvvS1MgYo/WDaJSC15Uym/I5pVT6wIykQmHH14qWLbU0jOWHtJrZ+5sUaBOcnKXYVF3qAbaK/neJd3PijdGbCu7wrr3hJYRUIG6ZNvMgymW/HeRcn1zmFG4GwcfqEr2cMQ2rbNvU9mel127QQR93xctLR01rDD9C5UQ9KxyFjnTZt/faN0vlsZDCoQ9hD6aRuoXM6dGvDn4JJnHRaTheNRVEg0LHJNy29bamtYSsnrJ3G1e98TtuAEwZObdlloMMIQs7X+ukTNtEgk4ciQe12yDAKBLqKeSeN9Pq+K8Fue8ylcyMQaERqPnX4Mke6iz1Ju2l6qlrWT9XpnQkE5176Ne1i0JDyQfqy95Fxze+HIUYQuo6Gk86LvlS/opsGv2Ynxo7Kt1NwAGmctlMnDJzasotFJ4EgfF43Y9Id9LT25EKYHAO/HnIdGYdNIFBnI9bRaPnW7EYgkND8A/U9n7P7HWhNt4naidS1x5Lle5JctUCgl8BLpq/bRss6vP2IEYSjVGQPmWL9fhhCIHgsEBj7I8XM1tyxk85Rpu2oTOu0nTph4NSWXR66CQTh9/rpEy7mhuHpQ+nQvqaKd+7caWtLrl12YRYItOXNoi1vnq0JooKe4pn0ddPWNxS8xEu2Y3MpEO4ngfAxuTjyJ2lK6ly5POpTy3L0wkM/BLYQCOLLKLWi2O+HIQSCxwLBYPfRwVGftNMInXSOdsoNIo3TduqEgVNbdrnoKBCE73XTWcI0JjbbrYeddH486PLthmUEgaYVTpA0kLqHphBfM2VVn7Zxu617TGQ7NjcCgWyJ7Znvs9Mm2tJwvnxa/TbbZwRIle1hYlmOXpiOmbELpzyzRRzJ7tlHCAS6i5tJHSrk98MQAsFjgcDY7ylmX7TTapx0jnbKDSKN03bqhIFTW3a56CoQcv7TyvrD9Hbay259iqWjk+FMKk/6FMxi5Yq/h0Eg0Pz8Kpqfd/GmbDw/re75k+zwaCeeJE8AdCcQJtCCPOP9kj6uIAE5SzKP8uRBCARRSa/FtRAIh6lcqS+23w9DCARvBQIdnfxz2sVga75Yx85R9bdbRwa6CwQRo/WnT/wSt9jdXsXL64ddzi/dBcKaKWPGJxLJbY44cm7RG7bjY3dlOzY3AmH9jAn3U37JKQb2FLWLcxyxUZhJlmNB10gh0giS3PRShs2atn5rwekjJ9UXAmE/Zewvk9np/nIZG/lpVT6wo7iLgZrZQlqkaGu1sErWTtuD3/l0ZBAGgdDWAUu+hXYTz+PUGUitj7LTNnQXCC46F9dv17K23QgEmkL5E3V/n7ETs1wa6i2fpdElT3fQyNi3m1aWY6Fyqe2bVI5l12YunZfCWgiEl6lgccuX7Q9tcxxEJ9Tts53BZUKVD+xICgSDzaY1CEvthEElazv+BJFGRwZhEggiZvXTJl1mmPxWt/EzuHnD1PrnrnNbTn5+nQUCdQjifJmBsvWlxX5XTl37/GLZfB3Ty3ZsbgQC7WK4hfyeI+Uz56/RCEmVVJ4AEstyLODiz6mj/29apPpzmme7VK4Kxpdoeul3cnkKpxYCYQv9SWquKp1Jj7v99tsbvHDAThkqH9gRFQiXkECwtdpcJWs7sQ8ijY4MwiYQWuNmOHkD6hhzL9+IRNmaCwTpdRemwZectnabXEfbxRdLtmNzIxDWz5x4NedsgdR3nG7iI4EgbmnV+iPLsbs276Qsr74zBl3v+wRNc0jN6dDUyPl0kuIqVRFS+cCOokAwLOMdi29bvNJOvFSytuNPEGl0ZBBSgZANH91tT8cpGxMdx5KzE3Q4Trnj/B0y6ioQqCOQHs2l6cMDxEZqirg7jrKdkSuBMGP8BzgzxbXUUh+vOj8po/+/vWuNcqu6zvdKGg8Y2zi8cRKetkfGwfOQxrQ4PwxhpbSLtgQKC0ISHuFlMvYMLq9CQt08eMVhPBg/6pVQKATSuqs0dKUJWU1t2qYFjzQzhoxHcmxIDOVZXAx+jD2je/udseVoZEn37H3PleTL1losvEZ7n733d472+e655+xDFKbiWNh8dN/Iic0vb303/ze0pU6gTCO5YEcuaOvd9AuSTglhdZvjIxhkCykNobb/Vajt/zRFx49sNRN2GAlCzsmdtmLFCpV8PD8gjNtBGD/hKVggUO1NqxTfOLLVHG+6/h3OBEHFOJCMd+BlqtZrrlKYNO7JNM4etIwcp6xjgkBePTA9WVInNj8Eoa+1aZoVtbWOXxaOCdMx6/4GKXJUHA+27bqoFJkdVylS1cFQ9TAo9pWsCZzsrq6ui52c8yzJuG09gCXrvyDp+BBmJOxdmLQmcUyGkSAAC7WrWWuAdXR0PBOxI1dQsBOCYFlBY3C4EwQ1njbOmfWZ3AT3FcrYKpAdRcJrYOqOU6tHgtDXHu/Bg9oiSnyYnO9IpIZoS/QeBqgTmx+CoFyh2jM18VFw5shy4qoUW1+i6R3Ltk8g+vJF/GaeIeqME1dHKNQ+BK3J46CmbaVBEJJ+DOvqdt3SNcuJOpt05ZUcNr483fNID7WE55iJeiYIS5YsiWx/f3uOgoWSpUxeWEG4BCsIpAthKO1Tfa+FPIOQkjDmxBQGgqDi3tjedGHOtVWBHPLnuVQmukST6FZqvC4Jwv4nRNKRNhNPiMU4USc2IQilRxoVR9UKCn9c2tKb+cdyY5fTpt8xMjYg6zEh5kHChLUUE9afU7IJ7kn/00cfffQ5ik5etp4Jwq233vrJ3GjuDWpclAm8s7OzCXW9MxQb2JPSgj0pgdwmRvHDlGw9/h7CQhBUHw3gaRn1g0lPy2MJ1LKfbEkNaRX8OgwJAu31gmvtxN4DUv0and8HdRISgmCOIHhN5tS+UZ41RCNfPvulTU/p9H0pmbonCIs6Fr0BXk061qKur8aEtZUDSj0TBOwXuRDLkOSnLwpBYK1S2NYLWFGaz8G7HnWEIATfK+lk0yiIP7mgj1cS1fG83lYQUolZbTiJkNbxPS+zJZWJXW5Z5NVELxvUSagWBMGOWFe1bshUbQ+cF2alvqfiqNrwGtsvt888Y9SNkOc1r3YrxVf3BAErCHuQSEg7mCkTYjE49UwQgMU6YEGeiKl4MCbIPbAxkfNDqkcdRvzyioHRkUEkUR036o0g4JTHq3i7cLqO73kZP0m/4uoKschVLQiCzmRKwTII2aDGNvYiOOodOsVnO+pe3PpS9scUnbxs3ROEaifreiYIHCxUR1eBIJBtcAZrtXQ4OFMxpsYSplcM+diRRN/Cv0+iYIHXh8cn05t9FWmrP4IQp71e0HjapGBaKEud2HwThPZ4CquiCaq/QREkqh/l5Kk46pKejb8345zcaPRFqp9cvPIEYTsM1uXRtmonaw5BiOVipzy88uHXqZ1GledgARvaFzXl/cFKxT6sVJB2jAc9QVKx8iPPwTno+MNIEAZnz56098jcR5S+wkzanUhlFlN0imUPd4IADHYDA+MlqBVO1InNN0GYO7PZciID1P7kTnhUO1x5Ko66BIHTR0rHdq3bW9OZpdR4xggCJoQuTAjdFGW8578U7/nL7riktFVJlpGsfS13cwgCsLgMWPyDqZjLtcPAgvVk37mwM42Y2ijxHLHriCkPPfYQKdlT2q+mbLVwpsQURoLAS3Zub1sqO5eCXegIgm09n+jN0K5J1gSMOrH5JQjcM/6OayeS6aE+zbCqLkbFkUIQBtpnfdNx3W9Qg+KQqjGCsGDBgk80xBrUKoL2BxPIZkyKTdoKDMGur3W1ORGHtHkHZ/jvX/bIMnbtdg5BwBLZGlyGdBMjRG2V+fPnx+acPWdEW+GAIOfJ9uabbz5hQsOEdyi2MB6+h/FwG0WnXmWFIFSvZxiJ9H0kOvJdBYURHe4rCLblfrc1lb0jiF6i9odfgsAjiWORv41xcHIQGJhok4ojhSBwMYthc+cc4ubOg5sd6jEp4kl2IyaeOZQO40yIhe2zCIJl7YVd0kZKSkxKFlgsBRak455Kj4tHPY4HKmZc+XqMPcQrCL3oJ/2aKq6F64wz5NMPhWMBVenm48l1HWV8RJ3R32/u20J+96tjgzqZwPd78IrhPp22qTJ0X+x/QrGmL1DtjOuPRHzYta1GahucJ2KqDa48FUcyQUhg74Yd/N6NuiYItUjUTILAnoh1ByCwUEeaSJeU4F4Td/mjy0k6eX9qgb0uFkHL1WPsYSUI/W0zb3AjkTWEPvVdUbE/OXuea+X+k2DTikSj57e8NEgiFbrtkycT170X5Xi/pds+RY7qi4kVBJThXo4qUR0UP5XsHtxZMK/gzgKqfpDyVBypBEHJc2xE7OhNLb2D2r+3gwRhYcfCD3B64mgKaPtG9p24evXqg5dKUHR1ZGuRqOuYIJB3OmPF4ftY9r9BB+tiGc4+BNj7Euz9kGOvnnRqMe684g8rQRhoPqvVaXAI75LdHdiDMNULr0rf9zE2xkUc+5KWviFaSXpNJ6mJ3nbdntZ0tkuzeW2xvuTML+MZhHRNsAmCwJ3skG+GE6nskdoBVlGQ2qcsgpBoQo0gm1QjiGpn3HlKamLEpU0DuLSpNQjcsXGyFRsnCYlD1Sm1l/Us77nVjz9cggAsLgcWa/3YLqfLKl6ExrivF5Qft9xyy/RYNPZrajx+bFJtBSVP/R0oP4KOO6wEAfsBmq2o/i52JKxftaYyZ/vp+8HE7FP22jmty8vydjAZfR2T0Xf82C2nS51MkOd+2poa+iPTvvQnm7Ziwj+D0m4tCYLy01T5bUrMOrLUPqVO3HkfOHYiEfeulg3ZB3Xi8EUQgkyMSIjkKy5NJGkuQQAWI7A/QQd0qgxnwjLRNxy7H3704ZGPP/74MDXGepLnxG1i7FXCIKwEYWNy5ldyVuQJ7f533bVYXkcRQf5nHTb8Hr3zbdqGX9eG3SFfdk0RBLQzjPfvxp+cOZONKYKA8ts/Q/ntPyD3akAlp8l+FClwsOTsqeDYoZCRYoKwC8qkinjHHHtMA55wR/0CWqxfqyTtgyAE9hTJwQLbD0aw/8AXYeHsezBBTEyPJWp7HLyFIFBR3i+PKoJbsPZ3pq42JpGrkmn/ZXYZiXUbEvipun5S5Bi+eJblpdjPy3L8MEUQfj19euNHU2OsBwvHPWpCMp2mET4OQAQdDpYcgrBxzpkn5CY0kE6c7Q/D/Spe1T3mFdI4goCrfufhmCBp8w4MbEVynO5liPI9LiWajkuJSMvbdsR+sKen5y6KnVKyfggC9nA8gFskjV6D3dXRdY9jO9+mxoWKc2fgwqrXqHomiNrw3uEJa9asqasfLAUHIQgUtPzJUhMpJ4mW8pBqV7VhynaxP/XgS7otfgnuOCDd4qriQAGen6AAz0X+RsF+bQ4O++c6Fydbsr5Otpjwv7ANTizc8dWXwE2geO9EjUHH3iGN1kNyrKUPfgiC6iDTT5IcLEz6UWv71EFvQp4Ts+l+L0HU/g1/O48SH96bz8em0RcoOtWWpSZSnaSmEwPVbr0RhB2TMg3nrbeMrdxy8BgjCJb1c+wJob8aKNFJ8OFS/JlVcA5HtVa0pDLkkxA6Y4Ujw8GTO7Y3tJ/56ZjbsI3qJy4Iu7elt/JpmEMIAnavv4PEcgLFGJazf4vl7NMoOuVkMUEfG41EqbXWfVVPLPTFL0EAkftbbJS82gQWmKjUjmLsLCZ/tmHCMrIcits0v4ksQK7aBZ11uOHxfLLndaAgBKE6nZBKxK+O2NbjFGvcJFpso5oJ3Cs+ji9oczewMFJuOZWwGiJ2fJ+Xn6W+xwSyDgTB2O+cicWYayMR67hzNmTe58RhWocTh5+xzbGnYvayeQhBwH6C2Pb3t5OXh009QXGSM5a0j8KS9m4TneyXICgfTGDBPblgyn4hlpw+GdO3rSRIAqkSpok+9NsGJ14TfV7J7zBuUqQmNdt2n2rtzXII8yHQUm0faGAECdXXvp5SfYwl4sX4rXyPOm69krtue9gHgpUI+tXb+3/i1i9BED6ra8tLDr6sQqs3e8mV+94UJlz7eT3O+PLjO2pJ3IRaEqupfqMq5x2oyvndcnol31sgGama+pOoxvwmya6FXQscy1lZbbuF9kwQBBOTNGeSysfhtx+K8ceq0rfUMS9qvyj50dzojJUrV2Ij2uHz4WBvGvNitGpBEPpbTpvaOvCbD4Louf5E/EVUzzuH0vaWPZnGywct1pNusR1OAldt+Eni5WLlbtBDcsdxx6yv444Dc+MXOY71z5R+GCdru6m23mw7W7+EIrdv8k1N/MidEs9ma3ovDCcGv2OLY9NrTJckCJdddln05JNO5rzf+hkS5R9yBgv3roFoLPqp7u5udSTSyMcUQYAzbwGLaRynMBl8CL3JHF1Q+rPx1P4rlm4FJc6kmW8u6kSv7F7R/SPTPgXVHifWMBKEAwlnOxLXsSax7ms/63OW6/wrtU2/CbTQXl97fAB3qDRTfcCOuA+w+5t0862OjSCSu5fdJaiK9CfJuKrQyv6ApLwKkqJ9CkXHUH9701Wuaz+lI1texrm6LbWZVPTJn73x2pz+9Du++9vjP3Rd64vUOHAS5U6Uy36olF7ZnY+orLgHu/Lp9wu41hJcXPRXVCc5SRk2RpGYSdcSe/llkCAoUzvhH2miBw7q9U7My89y3wc1US1asCgBr1Jcv6D3AXwznlixutGN1Y0uk3FzxqJJ+6UwrsUKQmGSwz6jjYl0tsVH/4+p4h6Ev0RJUMxNtE/UjlzQ3LvpFzSt8tLpthmz7Eh0E6c9JM0VWFY3uiEOWL8KX07n+MOcWGzYxKq07w8qW2Z8VbYs5UF/oinn2jhX4fOzI4XNnJgnuM281ByfuXtj5lVqG7UgCCpGjl2lV24MVTwawUmUBzoii4QZ1+mU6667bvKkoyapJ2byJ4ikbJggjMUUiUZOX7Zs2W8qBbh48eJzR0dGf0kGoUAhCDwK/cF4UOeUyZeqFMW07a233zpj7dq17CcXHIOdi2OwLxW2azJ2zrg3ab/UGKg2QehLNK1FGdc/K+WL445OT6a3bKWM1UxT0+Tdk23W77xSAqP4UCzLTaaqHbweyeHKZTaRL+W3H39AWLDfE2siGp+B5jNmOg0TshqiWiJMguLZth88Dmk8536yrT/7pqdR1bfYBIGn8W/gH2MPuqP2yClze7e+rqObl+H4bgJH7GcZxCryWRRflSxWgh7CStCdxXoVCULnos7H8ORwLdVYXh41Fe7G1cv3l9PHDnnUkrbItaTHAorYq1D34Baub+X0giAIBbZ6R0ZHrl+1atXL6m+LFi26HINQ1TiYYSCO/8UkdbyBdio2wZk8yzboWgORWKQD5KksMbqt47bTR+yR+7FK8Dm0U/aaX2xUnYaNqm+ZiJ8TY+gIQjKuM9lgnnR/OimXu2ZG/5b3irFPJWYeF7XtZ7GE6WsTm+u4zYm+7NhvxuSHk8RL2ceybh8eddMOwEBCPQ457VT8rj8F2RMpSd+/P+4P8Prj+koYwcZOfG/k9EPeDiVGSv/hNdC9+Umaoqch+xpqJ7yGFYqxvVHouxnILydhwM/EKbRD6ingbz9GaeuLNdo9KMLpS1M4cmwrx0vZ9yyuwK2mRwGTIxtUQg6YIHBC1dIJCo9i47gjYwp+MDu0nKqukLErt4Ug8JcqA+jyQE4OKD9x98B/+CUvXvHu2BOdfN7goJqUPT/9LS1T3djw/3kKegmgcBAeobox1b0C8tKEyRD30+i+LnaxSp27iMgAAAlCSURBVKgru98RUxNbqbAw2e3F342fHPGCsPh7aoycSZpqo1wM6WTTbuRocinuiGvf1ZIeGndHgydBUE5wEia1AyjyQU6GHIKAVwiXOjmHXIWMEnMlWVRNnIWqiRlT7Xm1A5LQhQHY7SVX7e9NjQvOeDdluxxm1XzFgOSmLjI6pdr9V8qeqaRZLhZOIqfg4rh7piXTv9Ve2QraHy/fFd5UHw73PvLChEOCqBhybJTzm3sqppQPWgQBN/t9Gjf7kSs16QBPlcGphYk4tbCHqqcrzyQIF+Vyua9h0mSd4ND1rYxcGpNT0mcbZHWQhOWI1+hGLbITRQqmJmkhCFqvF/x2l6e+6WqBpQwikauibEZPaRTayVluvD2VJb3v50wunmBqCDhu9NRkenAb9p+gdK+tNTeYnNgquVgrTPI+UUkQx1+qjUp4YRVhtNTrEq9hgE7vxn6WxXk57UGACeEaGPwbLwNBfl+NM/VcgoD36D/hTCw+8TK2rM7xw0elR445Tx1T44PTj6bISbkgq7WC0Nc6/XgrGnvXE+yABWJ7dx8z55Vt/pfbNfzkJHONZsdEojnngub+zaTTFwPJs1pRD4Z01b2uP+XkMBH0YmKYq74HQRgGQdDejGxyYqtIEnCyAX75PtnAwYoaI2dMUW1UiuPvUapg+muvsE5vFPqhTRCUMyAJV4IkPM0B2K/OvpF9J65evTrwxOWHINx4441HH9F4RCCFZUrhF/SkpNNnuExqHi6Tol7wpdM0Xca2nkUNiEvoiuM1PtYEIRlXv7HAN7tW6qPht3dOPPeNNwJbJSy2jYuK/hjTznN+x00pfbzXvRfvdb9FbXugfdYDjusesquc2o6m/LiyzXj63IE8P0VTN9A9CMU+oNIiSKNt/FilZ6wR69y2DZn/9pQ7IFBrgjBG9PQ2Gh8SEg4XPNLSu6lTfUEiCErh9oW3n7nX2lvVyng4FhfzcyxOt1OVnB+CoPRBou7Ej+sBik2G7IcgB0cz9IJSsQ9sZiWPJ9MOmSBNH3OCoHN6wXS35dtz8fRSkyfEdDL+PAbv540HZrvPo9LghZx2MRn+C1J00K8tR4H5uFoyOOL3FDY3XqXrs8knXx2b/W2zutyIW9U9ULi18gncWnmNjn/cydk0jum2pstx2u/vdH0ulMv7wkrofu4JIDq7Dwlfe6mL2HZJcb8EQTWK4j3YHe36OtpVLhaQj1dwGdQcE7GabgNxr0TcC0y3S2hvGOOFvHu3uP2PM0E4kNx24f8TCbj7FnUi9g3JDUPf992QjwbwxKWumDd6dT3Y1keJVEb7abzYfRSWuhttfMdHWGVVMem9i0nvxENtNs3D6Q7tVUHTE5tOrGO1CswUetIxp2R2IU7t6wc4T+9B4MjxQwWLsXE/xsbdLIKQRxTn+FfhnCr7Yo1KPQPmMxd1Dnp1e8+UnAmCMEYSOjsX4fx2jym/VDuxhljTww8/vNlkm0G0hQn2ebRr/mmsvLNPghh8xVQsH3eCoHBcN9+KTdkZ344EQaoEyuiDHyExXsnQC0Slf278ahwSfNxk434T/4vTp0+ZMDVm9GhxxLavaOkdKvt0SZlY/MbnB+vB9tkn7XVz2qdEuLawZXNea2/mv3T1Kfjl2wwCRxROugvvCcrWIqoUj/LHF0HIN45l9SyebGfqgleRGLj29T2P9vzARFucNkwRBGX7wEqLKp3sa9kUT+XPL1++nLVMycHAlE5HR8dX8T5rjd/4S/kDTNYDE1RANf8RgjAe0772WV+3HAfXfpvJF+i7XMyxv9Dcl+FfEmS+28e1iMTKLuJW7JqpxI9JR+3/8kemXGtLWzrjWZiNMsGZis9vl+KVDEpn27P8tvM7ffd1FJ5iHfel4BckQVBtc3xRerbrPGGEIOQDxIRwPiYE0o7dMV3b+h9UbGxFwj+kGpu5ztZrySRByFvEakI7VhM26HnwOynUN7ge9Q1qRpao/laSBwZzgMEzkCGXAYXOTkwqNzqO8/MVK1YEft+7ujiMGvv69etZO4Z17agL1N577z3S7zUInwZQmz7XYOGIK22FCEvCfTg7d3V7asj4RWK6GHLkBtqarsXrj8cYumrH/fltvUP/ztCtqAKfvgSfnqS060ac+xIbNt+jq7OOcB8M9Z4CXR+4cqnEtInRyNRO1Iu6j9QGkgzmrwWjb37wZPLNN3eTdOtYmNKXxWGQEg4VA0wKuErUueLA6sJk/H8EffAu/ks1Njb+9dKlS1+jthm0fBAEodBnvJa5Fq9l1DnTzxTFsg9E6QU8pH0br1aMJ5WgcZP2BYGPAwKDs2dPGG4c/awdi5yO97SNEdvdhWL92e1ThlLnredfCsTFbuPn5xw18v7IXbbtzsMy5fEOkkvEst9zXCs9abLzYNP6zarOg3wEARYCgRIElkc1VgqaINQ4PDEvCAgCgoAgIAhoISAEoQgmIQha40aEBAFBQBAQBEKOgBAEIQghH+ISniAgCAgCggAHASEIQhA440Z0BAFBQBAQBEKOgBAEIQghH+ISniAgCAgCggAHASEIQhA440Z0BAFBQBAQBEKOgBAEIQghH+ISniAgCAgCggAHASEIQhA440Z0BAFBQBAQBEKOgBAEIQghH+ISniAgCAgCggAHASEIQhA440Z0BAFBQBAQBEKOgBAEIQghH+ISniAgCAgCggAHASEIQhA440Z0BAFBQBAQBEKOgBAEIQghH+ISniAgCAgCggAHASEIQhA440Z0BAFBQBAQBEKOgBAEIQghH+ISniAgCAgCggAHASEIQhA440Z0BAFBQBAQBEKOgBAEIQghH+ISniAgCAgCggAHASEIQhA440Z0BAFBQBAQBEKOgBAEIQghH+ISniAgCAgCggAHASEIQhA440Z0BAFBQBAQBEKOgBAEIQghH+ISniAgCAgCggAHASEIQhA440Z0BAFBQBAQBEKOgBAEIQghH+ISniAgCAgCggAHASEIQhA440Z0BAFBQBAQBEKOgBAEIQghH+ISniAgCAgCggAHASEIQhA440Z0BAFBQBAQBEKOgBAEIQghH+ISniAgCAgCggAHASEIQhA440Z0BAFBQBAQBEKOgBAEIQghH+ISniAgCAgCggAHASEIQhA440Z0BAFBQBAQBEKOgBAEIQghH+ISniAgCAgCggAHgf8HeDxmpWpv0oUAAAAASUVORK5CYII=;" vertex="1" parent="1">
          <mxGeometry x="561.8" y="107" width="76.88" height="75.4" as="geometry" />
        </mxCell>
        <mxCell id="HVVMLvjsxQdkjvLkzc8h-28" value="Login Node" style="rounded=1;whiteSpace=wrap;html=1;labelPosition=center;verticalLabelPosition=bottom;align=center;verticalAlign=top;fillColor=#dae8fc;strokeColor=#6c8ebf;" vertex="1" parent="1">
          <mxGeometry x="100" y="290" width="250" height="140" as="geometry" />
        </mxCell>
        <mxCell id="HVVMLvjsxQdkjvLkzc8h-29" value="&lt;div&gt;&lt;b&gt;Login Node&lt;/b&gt;&lt;/div&gt;&lt;div&gt;PBS Client&lt;br&gt;&lt;/div&gt;&lt;div&gt;Rocky Linux 8.5&lt;br&gt;&lt;/div&gt;&lt;div&gt;&lt;br&gt;&lt;/div&gt;&lt;div&gt;&lt;div align=&quot;left&quot;&gt;/home&lt;/div&gt;&lt;div align=&quot;left&quot;&gt;/apps&lt;br&gt;&lt;/div&gt;&lt;div align=&quot;left&quot;&gt;/scratch&lt;/div&gt;&lt;/div&gt;" style="rounded=0;whiteSpace=wrap;html=1;" vertex="1" parent="1">
          <mxGeometry x="130" y="305.4" width="170" height="110" as="geometry" />
        </mxCell>
        <mxCell id="HVVMLvjsxQdkjvLkzc8h-30" value="" style="shadow=0;dashed=0;html=1;strokeColor=none;fillColor=#4495D1;labelPosition=center;verticalLabelPosition=bottom;verticalAlign=top;align=center;outlineConnect=0;shape=mxgraph.veeam.2d.virtual_machine;" vertex="1" parent="1">
          <mxGeometry x="291" y="340" width="44.8" height="44" as="geometry" />
        </mxCell>
      </root>
    </mxGraphModel>
  </diagram>
</mxfile>
